 0
SECTION
 2
ENTITIES
  0
LINE
 8
Group#1
10
87.0000000000001
20
52.0000000000006
30
4.24404955623459e-013
11
87.0000000000001
21
53.5
31
8.67139693383479e-013
  0
LINE
 8
Group#1
10
89.5
20
53.5
30
8.67139693383479e-013
11
89.5
21
56.4999999999999
31
8.23430212903986e-013
  0
LINE
 8
Group#1
10
80.4999999999999
20
53.5
30
8.67139693383479e-013
11
83.0
21
53.5
31
8.67139693383479e-013
  0
LINE
 8
Group#1
10
80.4999999999999
20
56.4999999999999
30
8.23430212903986e-013
11
80.4999999999999
21
53.5
31
8.67139693383479e-013
  0
LINE
 8
Group#1
10
83.0
20
56.4999999999999
30
8.23430212903986e-013
11
80.4999999999999
21
56.4999999999999
31
8.23430212903986e-013
  0
LINE
 8
Group#1
10
83.0
20
59.9999999999999
30
8.26250179386534e-013
11
83.0
21
56.4999999999999
31
8.23430212903986e-013
  0
LINE
 8
Group#1
10
27.0
20
59.9999999999999
30
8.26250179386534e-013
11
83.0
21
59.9999999999999
31
8.26250179386534e-013
  0
LINE
 8
Group#1
10
27.0
20
56.4999999999999
30
8.23430212903986e-013
11
27.0
21
59.9999999999999
31
8.26250179386534e-013
  0
LINE
 8
Group#1
10
29.5
20
56.4999999999999
30
8.23430212903986e-013
11
27.0
21
56.4999999999999
31
8.23430212903986e-013
  0
LINE
 8
Group#1
10
29.5
20
53.5
30
8.67139693383479e-013
11
29.5
21
56.4999999999999
31
8.23430212903986e-013
  0
LINE
 8
Group#1
10
27.0
20
53.5
30
8.67139693383479e-013
11
29.5
21
53.5
31
8.67139693383479e-013
  0
LINE
 8
Group#1
10
27.0
20
52.0000000000006
30
4.24404955623459e-013
11
27.0
21
53.5
31
8.67139693383479e-013
  0
LINE
 8
Group#1
10
23.0
20
52.0000000000006
30
4.24404955623459e-013
11
27.0
21
52.0000000000006
31
4.24404955623459e-013
  0
LINE
 8
Group#1
10
23.0
20
53.5
30
8.67139693383479e-013
11
23.0
21
52.0000000000006
31
4.24404955623459e-013
  0
LINE
 8
Group#1
10
20.5
20
56.4999999999999
30
8.23430212903986e-013
11
20.5
21
53.5
31
8.67139693383479e-013
  0
LINE
 8
Group#1
10
23.0
20
56.4999999999999
30
8.23430212903986e-013
11
20.5
21
56.4999999999999
31
8.23430212903986e-013
  0
LINE
 8
Group#1
10
23.0
20
59.9999999999999
30
8.26250179386534e-013
11
23.0
21
56.4999999999999
31
8.23430212903986e-013
  0
LINE
 8
Group#1
10
0.0
20
59.9999999999999
30
8.26250179386534e-013
11
23.0
21
59.9999999999999
31
8.26250179386534e-013
  0
LINE
 8
Group#1
10
0.0
20
0.0
30
5.58353363544484e-013
11
0.0
21
59.9999999999999
31
8.26250179386534e-013
  0
LINE
 8
Group#1
10
23.0
20
0.0
30
5.5694338030321e-013
11
0.0
21
0.0
31
5.58353363544484e-013
  0
LINE
 8
Group#1
10
23.0
20
3.50000000000067
30
5.63993296509579e-015
11
23.0
21
0.0
31
5.5694338030321e-013
  0
LINE
 8
Group#1
10
20.5
20
3.50000000000067
30
2.11497486191092e-014
11
23.0
21
3.50000000000067
31
5.63993296509579e-015
  0
LINE
 8
Group#1
10
20.5
20
6.49999999999985
30
5.30153698719005e-013
11
20.5
21
3.50000000000067
31
2.11497486191092e-014
  0
LINE
 8
Group#1
10
23.0
20
7.99999999999958
30
9.95448168339408e-013
11
23.0
21
6.49999999999988
31
5.32973665201553e-013
  0
LINE
 8
Group#1
10
27.0
20
7.99999999999958
30
1.01941788344107e-012
11
23.0
21
7.99999999999958
31
9.95448168339408e-013
  0
LINE
 8
Group#1
10
29.5
20
6.49999999999985
30
5.48483480855566e-013
11
27.0
21
6.49999999999988
31
5.32973665201553e-013
  0
LINE
 8
Group#1
10
29.5
20
3.50000000000067
30
5.63993296509579e-015
11
29.5
21
6.49999999999985
31
5.48483480855566e-013
  0
LINE
 8
Group#1
10
27.0
20
0.0
30
5.58353363544484e-013
11
27.0
21
3.50000000000067
31
0.0
  0
LINE
 8
Group#1
10
82.9999999999999
20
0.0
30
5.58353363544484e-013
11
27.0
21
0.0
31
5.58353363544484e-013
  0
LINE
 8
Group#1
10
100.0
20
0.0
30
5.45663514373018e-013
11
100.0
21
8.49999999999958
31
1.0067280342696e-012
  0
LINE
 8
Group#1
10
100.0
20
0.0
30
5.45663514373018e-013
11
86.9999999999999
21
0.0
31
5.71043212715949e-013
  0
LINE
 8
Group#1
10
105.0
20
8.4999999999996
30
1.00813801751087e-012
11
104.720657094253
21
8.92634272990174
31
1.0335177158538e-012
  0
LINE
 8
Group#1
10
104.720657094253
20
8.92634272990174
30
1.0335177158538e-012
11
104.369447724059
21
9.29573758722958
31
1.04056763206017e-012
  0
LINE
 8
Group#1
10
104.369447724059
20
9.29573758722958
30
1.04056763206017e-012
11
103.957737973711
21
9.59622995618515
31
9.10849173862971e-013
  0
LINE
 8
Group#1
10
103.957737973711
20
9.59622995618515
30
9.10849173862971e-013
11
103.498851883293
21
9.81809509168933
31
1.19848575508286e-012
  0
LINE
 8
Group#1
10
103.498851883293
20
9.81809509168933
30
1.19848575508286e-012
11
103.007640246736
21
9.95415283841171
31
1.02505781640616e-012
  0
LINE
 8
Group#1
10
103.007640246736
20
9.95415283841171
30
1.02505781640616e-012
11
102.5
21
9.99999999999969
31
1.02505781640616e-012
  0
LINE
 8
Group#1
10
102.5
20
9.99999999999969
30
1.02505781640616e-012
11
101.992359753264
21
9.95415283841171
31
1.02223784992361e-012
  0
LINE
 8
Group#1
10
101.992359753264
20
9.95415283841171
30
1.02223784992361e-012
11
101.501148116707
21
9.81809509168933
31
1.19566578860031e-012
  0
LINE
 8
Group#1
10
101.501148116707
20
9.81809509168933
30
1.19566578860031e-012
11
101.042262026289
21
9.59622995618515
31
9.08029207380423e-013
  0
LINE
 8
Group#1
10
101.042262026289
20
9.59622995618515
30
9.08029207380423e-013
11
100.630552275941
21
9.29573758722958
31
1.03774766557763e-012
  0
LINE
 8
Group#1
10
100.630552275941
20
9.29573758722958
30
1.03774766557763e-012
11
100.279342905748
21
8.92634272990174
31
1.0335177158538e-012
  0
LINE
 8
Group#1
10
100.279342905748
20
8.92634272990174
30
1.0335177158538e-012
11
100.0
21
8.49999999999958
31
1.0067280342696e-012
  0
LINE
 8
Group#1
10
105.0
20
8.4999999999996
30
1.00813801751087e-012
11
105.0
21
0.0
31
5.45663514373018e-013
  0
LINE
 8
Group#1
10
25.7206980703546
20
46.8938659718929
30
6.26032559125633e-013
11
25.0765627741635
21
46.9988273533023
31
5.97832894300154e-013
  0
LINE
 8
Group#1
10
25.0765627741635
20
46.9988273533023
30
5.97832894300154e-013
11
24.427209851439
21
46.9334977800916
31
5.89372994852511e-013
  0
LINE
 8
Group#1
10
83.0
20
53.5
30
8.67139693383479e-013
11
83.0
21
52.0000000000006
31
4.24404955623459e-013
  0
LINE
 8
Group#1
10
82.9999999999999
20
3.50000000000067
30
1.12798659301916e-014
11
82.9999999999999
21
0.0
31
5.58353363544484e-013
  0
LINE
 8
Group#1
10
80.4999999999999
20
3.50000000000069
30
3.38395977905748e-014
11
82.9999999999999
21
3.50000000000067
31
1.12798659301916e-014
  0
LINE
 8
Group#1
10
80.4999999999999
20
6.4999999999999
30
5.45663514373018e-013
11
80.4999999999999
21
3.50000000000069
31
3.38395977905748e-014
  0
LINE
 8
Group#1
10
82.9999999999999
20
6.49999999999999
30
4.97724084169704e-013
11
80.4999999999999
21
6.4999999999999
31
5.45663514373018e-013
  0
LINE
 8
Group#1
10
82.9999999999999
20
7.99999999999958
30
9.95448168339408e-013
11
82.9999999999999
21
6.49999999999999
31
4.97724084169704e-013
  0
LINE
 8
Group#1
10
87.0
20
7.99999999999951
30
1.05184749799037e-012
11
82.9999999999999
21
7.99999999999958
31
9.95448168339408e-013
  0
LINE
 8
Group#1
10
86.9999999999999
20
6.49999999999994
30
5.16053866306265e-013
11
87.0
21
7.99999999999951
31
1.05184749799037e-012
  0
LINE
 8
Group#1
10
89.4999999999998
20
6.49999999999994
30
5.37203614925375e-013
11
86.9999999999999
21
6.49999999999994
31
5.16053866306265e-013
  0
LINE
 8
Group#1
10
89.4999999999999
20
3.50000000000067
30
2.11497486191092e-014
11
89.4999999999998
21
6.49999999999994
31
5.37203614925375e-013
  0
LINE
 8
Group#1
10
87.0
20
3.50000000000069
30
2.8199664825479e-014
11
89.4999999999999
21
3.50000000000067
31
2.11497486191092e-014
  0
LINE
 8
Group#1
10
86.9999999999999
20
0.0
30
5.71043212715949e-013
11
87.0
21
3.50000000000069
31
2.8199664825479e-014
  0
LINE
 8
Group#1
10
110.0
20
0.0
30
5.58353363544484e-013
11
105.0
21
0.0
31
5.45663514373018e-013
  0
LINE
 8
Group#1
10
110.0
20
59.9999999999999
30
8.26250179386534e-013
11
110.0
21
0.0
31
5.58353363544484e-013
  0
LINE
 8
Group#1
10
87.0000000000001
20
59.9999999999999
30
8.26250179386534e-013
11
110.0
21
59.9999999999999
31
8.26250179386534e-013
  0
LINE
 8
Group#1
10
87.0000000000001
20
56.4999999999999
30
8.23430212903986e-013
11
87.0000000000001
21
59.9999999999999
31
8.26250179386534e-013
  0
LINE
 8
Group#1
10
25.572790148561
20
42.0665022199083
30
6.44362341262195e-013
11
26.1831083692415
21
42.2976706452869
31
7.07811587119522e-013
  0
LINE
 8
Group#1
10
26.7127997097371
20
42.6789241766679
30
6.96531721189331e-013
11
27.1257665805496
21
43.1842810159389
31
8.54449844212013e-013
  0
LINE
 8
Group#1
10
23.8168916307586
20
46.7023293547129
30
7.44471151392645e-013
11
23.2872002902629
21
46.3210758233318
31
7.86770648630864e-013
  0
LINE
 8
Group#1
10
23.178924176668
20
42.7872002902628
30
7.03581637395701e-013
11
23.6842810159391
21
42.3742334194502
31
7.41651184910097e-013
  0
LINE
 8
Group#1
10
87.0000000000001
20
53.5
30
8.67139693383479e-013
11
89.5
21
53.5
31
8.67139693383479e-013
  0
LINE
 8
Group#1
10
23.0
20
6.49999999999988
30
5.32973665201553e-013
11
20.5
21
6.49999999999985
31
5.30153698719005e-013
  0
LINE
 8
Group#1
10
27.0
20
3.50000000000067
30
0.0
11
29.5
21
3.50000000000067
31
5.63993296509579e-015
  0
LINE
 8
Group#1
10
20.5
20
53.5
30
8.67139693383479e-013
11
23.0
21
53.5
31
8.67139693383479e-013
  0
LINE
 8
Group#1
10
89.5
20
56.4999999999999
30
8.23430212903986e-013
11
87.0000000000001
21
56.4999999999999
31
8.23430212903986e-013
  0
LINE
 8
Group#1
10
27.0
20
6.49999999999988
30
5.32973665201553e-013
11
27.0
21
7.99999999999958
31
1.01941788344107e-012
  0
LINE
 8
Group#1
10
84.3529523872436
20
42.0851854342773
30
5.89372994852511e-013
11
85.0
21
41.9999999999999
31
7.06401603878248e-013
  0
LINE
 8
Group#1
10
85.0
20
41.9999999999999
30
7.06401603878248e-013
11
85.6470476127563
21
42.0851854342773
31
5.89372994852511e-013
  0
LINE
 8
Group#1
10
85.6470476127563
20
42.0851854342773
30
5.89372994852511e-013
11
86.25
21
42.3349364905388
31
6.73971989328948e-013
  0
LINE
 8
Group#1
10
83.0
20
52.0000000000006
30
4.24404955623459e-013
11
87.0000000000001
21
52.0000000000006
31
4.24404955623459e-013
  0
LINE
 8
Group#1
10
26.1831083692415
20
42.2976706452869
30
7.07811587119522e-013
11
26.7127997097371
21
42.6789241766679
31
6.96531721189331e-013
  0
LINE
 8
Group#1
10
27.1257665805496
20
43.1842810159389
30
8.54449844212013e-013
11
27.393865971893
21
43.7793019296452
31
7.44471151392645e-013
  0
LINE
 8
Group#1
10
27.393865971893
20
43.7793019296452
30
7.44471151392645e-013
11
27.4988273533024
21
44.4234372258364
31
6.1757265967799e-013
  0
LINE
 8
Group#1
10
27.4988273533024
20
44.4234372258364
30
6.1757265967799e-013
11
27.4334977800918
21
45.0727901485606
31
7.79720732424494e-013
  0
LINE
 8
Group#1
10
27.4334977800918
20
45.0727901485606
30
7.79720732424494e-013
11
27.2023293547131
21
45.6831083692412
31
6.90891788224235e-013
  0
LINE
 8
Group#1
10
27.2023293547131
20
45.6831083692412
30
6.90891788224235e-013
11
26.821075823332
21
46.2127997097368
31
6.83841872017865e-013
  0
LINE
 8
Group#1
10
92.4019237886468
20
30.9999999999997
30
7.45881134633919e-013
11
92.1022225211329
21
30.2764571353076
31
6.09112760230346e-013
  0
LINE
 8
Group#1
10
92.1022225211329
20
30.2764571353076
30
6.09112760230346e-013
11
92.0000000000001
21
29.5000000000002
31
5.11823916582444e-013
  0
LINE
 8
Group#1
10
26.821075823332
20
46.2127997097368
30
6.83841872017865e-013
11
26.315718984061
21
46.6257665805493
31
7.72670816218124e-013
  0
LINE
 8
Group#1
10
26.315718984061
20
46.6257665805493
30
7.72670816218124e-013
11
25.7206980703546
21
46.8938659718929
31
6.26032559125633e-013
  0
LINE
 8
Group#1
10
24.427209851439
20
46.9334977800916
30
5.89372994852511e-013
11
23.8168916307586
21
46.7023293547129
31
7.44471151392645e-013
  0
LINE
 8
Group#1
10
23.2872002902629
20
46.3210758233318
30
7.86770648630864e-013
11
22.8742334194504
21
45.8157189840606
31
7.54341034081563e-013
  0
LINE
 8
Group#1
10
22.8742334194504
20
45.8157189840606
30
7.54341034081563e-013
11
22.606134028107
21
45.2206980703543
31
8.60089777177109e-013
  0
LINE
 8
Group#1
10
22.606134028107
20
45.2206980703543
30
8.60089777177109e-013
11
22.5011726466976
21
44.5765627741631
31
8.43169978281822e-013
  0
LINE
 8
Group#1
10
22.5011726466976
20
44.5765627741631
30
8.43169978281822e-013
11
22.5665022199083
21
43.9272098514389
31
7.86770648630864e-013
  0
LINE
 8
Group#1
10
22.5665022199083
20
43.9272098514389
30
7.86770648630864e-013
11
22.797670645287
21
43.3168916307585
31
6.90891788224235e-013
  0
LINE
 8
Group#1
10
22.797670645287
20
43.3168916307585
30
6.90891788224235e-013
11
23.178924176668
21
42.7872002902628
31
7.03581637395701e-013
  0
LINE
 8
Group#1
10
23.6842810159391
20
42.3742334194502
30
7.41651184910097e-013
11
24.2793019296454
21
42.1061340281068
31
7.67030883253028e-013
  0
LINE
 8
Group#1
10
24.2793019296454
20
42.1061340281068
30
7.67030883253028e-013
11
24.9234372258366
21
42.0011726466975
31
7.21911419532262e-013
  0
LINE
 8
Group#1
10
24.9234372258366
20
42.0011726466975
30
7.21911419532262e-013
11
25.572790148561
21
42.0665022199083
31
6.44362341262195e-013
  0
LINE
 8
Group#1
10
82.8349364905388
20
43.2499999999998
30
7.64210916770481e-013
11
83.2322330470336
21
42.7322330470337
31
6.68332056363852e-013
  0
LINE
 8
Group#1
10
83.2322330470336
20
42.7322330470337
30
6.68332056363852e-013
11
83.75
21
42.3349364905388
31
6.73971989328948e-013
  0
LINE
 8
Group#1
10
83.75
20
42.3349364905388
30
6.73971989328948e-013
11
84.3529523872436
21
42.0851854342773
31
5.89372994852511e-013
  0
LINE
 8
Group#1
10
72.1022225211328
20
28.7235428646929
30
4.03255207004349e-013
11
72.4019237886467
21
28.0000000000003
31
4.08895139969445e-013
  0
LINE
 8
Group#1
10
72.4019237886467
20
28.0000000000003
30
4.08895139969445e-013
11
72.8786796564403
21
27.3786796564406
31
4.73754369068047e-013
  0
LINE
 8
Group#1
10
72.8786796564403
20
27.3786796564406
30
4.73754369068047e-013
11
73.5
21
26.9019237886471
31
4.22994972382185e-013
  0
LINE
 8
Group#1
10
86.25
20
42.3349364905388
30
6.73971989328948e-013
11
86.7677669529664
21
42.7322330470337
31
6.68332056363852e-013
  0
LINE
 8
Group#1
10
86.7677669529664
20
42.7322330470337
30
6.68332056363852e-013
11
87.1650635094611
21
43.2499999999998
31
7.64210916770481e-013
  0
LINE
 8
Group#1
10
87.1650635094611
20
43.2499999999998
30
7.64210916770481e-013
11
87.4148145657227
21
43.8529523872435
31
7.02171654154427e-013
  0
LINE
 8
Group#1
10
87.4148145657227
20
43.8529523872435
30
7.02171654154427e-013
11
87.5
21
44.4999999999996
31
7.8536066538959e-013
  0
LINE
 8
Group#1
10
87.5
20
44.4999999999996
30
7.8536066538959e-013
11
87.4148145657227
21
45.147047612756
31
9.17899090069341e-013
  0
LINE
 8
Group#1
10
87.4148145657227
20
45.147047612756
30
9.17899090069341e-013
11
87.1650635094611
21
45.7499999999998
31
6.26032559125633e-013
  0
LINE
 8
Group#1
10
87.1650635094611
20
45.7499999999998
30
6.26032559125633e-013
11
86.7677669529664
21
46.2677669529661
31
8.17790279938891e-013
  0
LINE
 8
Group#1
10
86.7677669529664
20
46.2677669529661
30
8.17790279938891e-013
11
86.25
21
46.665063509461
31
5.69633229474675e-013
  0
LINE
 8
Group#1
10
86.25
20
46.665063509461
30
5.69633229474675e-013
11
85.6470476127563
21
46.9148145657225
31
5.41433564649196e-013
  0
LINE
 8
Group#1
10
85.6470476127563
20
46.9148145657225
30
5.41433564649196e-013
11
85.0
21
46.9999999999999
31
5.71043212715949e-013
  0
LINE
 8
Group#1
10
85.0
20
46.9999999999999
30
5.71043212715949e-013
11
84.3529523872436
21
46.9148145657225
31
5.35793631684101e-013
  0
LINE
 8
Group#1
10
84.3529523872436
20
46.9148145657225
30
5.35793631684101e-013
11
83.75
21
46.665063509461
31
5.66813262992128e-013
  0
LINE
 8
Group#1
10
83.75
20
46.665063509461
30
5.66813262992128e-013
11
83.2322330470336
21
46.2677669529661
31
8.29070145869082e-013
  0
LINE
 8
Group#1
10
83.2322330470336
20
46.2677669529661
30
8.29070145869082e-013
11
82.8349364905388
21
45.7499999999998
31
6.26032559125633e-013
  0
LINE
 8
Group#1
10
82.8349364905388
20
45.7499999999998
30
6.26032559125633e-013
11
82.5851854342773
21
45.147047612756
31
9.17899090069341e-013
  0
LINE
 8
Group#1
10
82.5851854342773
20
45.147047612756
30
9.17899090069341e-013
11
82.4999999999999
21
44.4999999999996
31
7.8536066538959e-013
  0
LINE
 8
Group#1
10
82.4999999999999
20
44.4999999999996
30
7.8536066538959e-013
11
82.5851854342773
21
43.8529523872435
31
7.02171654154427e-013
  0
LINE
 8
Group#1
10
82.5851854342773
20
43.8529523872435
30
7.02171654154427e-013
11
82.8349364905388
21
43.2499999999998
31
7.64210916770481e-013
  0
LINE
 8
Group#1
10
95.0000000000001
20
32.4999999999996
30
7.44471151392645e-013
11
94.2235428646926
21
32.3977774788668
31
8.82649509037492e-013
  0
LINE
 8
Group#1
10
94.2235428646926
20
32.3977774788668
30
8.82649509037492e-013
11
93.5000000000001
21
32.0980762113529
31
9.44688771653546e-013
  0
LINE
 8
Group#1
10
93.5000000000001
20
32.0980762113529
30
9.44688771653546e-013
11
92.8786796564405
21
31.6213203435594
31
7.41651184910097e-013
  0
LINE
 8
Group#1
10
92.8786796564405
20
31.6213203435594
30
7.41651184910097e-013
11
92.4019237886468
21
30.9999999999997
31
7.45881134633919e-013
  0
LINE
 8
Group#1
10
22.4019237886467
20
30.9999999999997
30
7.45881134633919e-013
11
22.1022225211328
21
30.2764571353076
31
6.40132391538373e-013
  0
LINE
 8
Group#1
10
22.1022225211328
20
30.2764571353076
30
6.40132391538373e-013
11
22.0
21
29.5000000000002
31
5.11823916582444e-013
  0
LINE
 8
Group#1
10
22.0
20
29.5000000000002
30
5.11823916582444e-013
11
22.1022225211328
21
28.7235428646929
31
4.03255207004349e-013
  0
LINE
 8
Group#1
10
92.0000000000001
20
29.5000000000002
30
5.11823916582444e-013
11
92.1022225211329
21
28.7235428646929
31
4.03255207004349e-013
  0
LINE
 8
Group#1
10
92.1022225211329
20
28.7235428646929
30
4.03255207004349e-013
11
92.4019237886468
21
28.0000000000003
31
4.08895139969445e-013
  0
LINE
 8
Group#1
10
92.4019237886468
20
28.0000000000003
30
4.08895139969445e-013
11
92.8786796564405
21
27.3786796564406
31
4.73754369068047e-013
  0
LINE
 8
Group#1
10
92.8786796564405
20
27.3786796564406
30
4.73754369068047e-013
11
93.5000000000001
21
26.9019237886471
31
4.22994972382185e-013
  0
LINE
 8
Group#1
10
93.5000000000001
20
26.9019237886471
30
4.22994972382185e-013
11
94.2235428646925
21
26.6022225211332
31
4.61064519896581e-013
  0
LINE
 8
Group#1
10
94.2235428646925
20
26.6022225211332
30
4.61064519896581e-013
11
95.0000000000001
21
26.5000000000003
31
3.62365693007405e-013
  0
LINE
 8
Group#1
10
95.0000000000001
20
26.5000000000003
30
3.62365693007405e-013
11
95.7764571353077
21
26.6022225211332
31
4.61064519896581e-013
  0
LINE
 8
Group#1
10
95.7764571353077
20
26.6022225211332
30
4.61064519896581e-013
11
96.5000000000002
21
26.9019237886471
31
4.22994972382185e-013
  0
LINE
 8
Group#1
10
96.5000000000002
20
26.9019237886471
30
4.22994972382185e-013
11
97.1213203435598
21
27.3786796564406
31
4.73754369068047e-013
  0
LINE
 8
Group#1
10
97.1213203435598
20
27.3786796564406
30
4.73754369068047e-013
11
97.5980762113535
21
28.0000000000003
31
4.08895139969445e-013
  0
LINE
 8
Group#1
10
97.5980762113535
20
28.0000000000003
30
4.08895139969445e-013
11
97.8977774788673
21
28.7235428646929
31
4.03255207004349e-013
  0
LINE
 8
Group#1
10
97.8977774788673
20
28.7235428646929
30
4.03255207004349e-013
11
98.0000000000002
21
29.5000000000002
31
5.11823916582444e-013
  0
LINE
 8
Group#1
10
98.0000000000002
20
29.5000000000002
30
5.11823916582444e-013
11
97.8977774788673
21
30.2764571353076
31
6.40132391538373e-013
  0
LINE
 8
Group#1
10
97.8977774788673
20
30.2764571353076
30
6.40132391538373e-013
11
97.5980762113535
21
30.9999999999997
31
7.45881134633919e-013
  0
LINE
 8
Group#1
10
97.5980762113535
20
30.9999999999997
30
7.45881134633919e-013
11
97.1213203435598
21
31.6213203435594
31
7.41651184910097e-013
  0
LINE
 8
Group#1
10
97.1213203435598
20
31.6213203435594
30
7.41651184910097e-013
11
96.5000000000002
21
32.0980762113529
31
9.44688771653546e-013
  0
LINE
 8
Group#1
10
96.5000000000002
20
32.0980762113529
30
9.44688771653546e-013
11
95.7764571353077
21
32.3977774788668
31
8.82649509037492e-013
  0
LINE
 8
Group#1
10
95.7764571353077
20
32.3977774788668
30
8.82649509037492e-013
11
95.0000000000001
21
32.4999999999996
31
7.44471151392645e-013
  0
LINE
 8
Group#1
10
75.0
20
32.4999999999996
30
7.44471151392645e-013
11
74.2235428646924
21
32.3977774788668
31
8.82649509037492e-013
  0
LINE
 8
Group#1
10
74.2235428646924
20
32.3977774788668
30
8.82649509037492e-013
11
73.5
21
32.0980762113529
31
9.44688771653546e-013
  0
LINE
 8
Group#1
10
73.5
20
32.0980762113529
30
9.44688771653546e-013
11
72.8786796564403
21
31.6213203435594
31
7.41651184910097e-013
  0
LINE
 8
Group#1
10
72.8786796564403
20
31.6213203435594
30
7.41651184910097e-013
11
72.4019237886467
21
30.9999999999997
31
7.45881134633919e-013
  0
LINE
 8
Group#1
10
72.4019237886467
20
30.9999999999997
30
7.45881134633919e-013
11
72.1022225211328
21
30.2764571353076
31
6.09112760230346e-013
  0
LINE
 8
Group#1
10
72.1022225211328
20
30.2764571353076
30
6.09112760230346e-013
11
72.0
21
29.5000000000002
31
5.11823916582444e-013
  0
LINE
 8
Group#1
10
72.0
20
29.5000000000002
30
5.11823916582444e-013
11
72.1022225211328
21
28.7235428646929
31
4.03255207004349e-013
  0
LINE
 8
Group#1
10
73.5
20
26.9019237886471
30
4.22994972382185e-013
11
74.2235428646924
21
26.6022225211332
31
4.61064519896581e-013
  0
LINE
 8
Group#1
10
74.2235428646924
20
26.6022225211332
30
4.61064519896581e-013
11
75.0
21
26.5000000000003
31
3.62365693007405e-013
  0
LINE
 8
Group#1
10
75.0
20
26.5000000000003
30
3.62365693007405e-013
11
75.7764571353076
21
26.6022225211332
31
4.61064519896581e-013
  0
LINE
 8
Group#1
10
75.7764571353076
20
26.6022225211332
30
4.61064519896581e-013
11
76.5
21
26.9019237886471
31
4.22994972382185e-013
  0
LINE
 8
Group#1
10
76.5
20
26.9019237886471
30
4.22994972382185e-013
11
77.1213203435597
21
27.3786796564406
31
4.73754369068047e-013
  0
LINE
 8
Group#1
10
77.1213203435597
20
27.3786796564406
30
4.73754369068047e-013
11
77.5980762113533
21
28.0000000000003
31
4.08895139969445e-013
  0
LINE
 8
Group#1
10
77.5980762113533
20
28.0000000000003
30
4.08895139969445e-013
11
77.8977774788673
21
28.7235428646929
31
4.03255207004349e-013
  0
LINE
 8
Group#1
10
77.8977774788673
20
28.7235428646929
30
4.03255207004349e-013
11
78.0
21
29.5000000000002
31
5.11823916582444e-013
  0
LINE
 8
Group#1
10
78.0
20
29.5000000000002
30
5.11823916582444e-013
11
77.8977774788673
21
30.2764571353076
31
6.40132391538373e-013
  0
LINE
 8
Group#1
10
77.8977774788673
20
30.2764571353076
30
6.40132391538373e-013
11
77.5980762113533
21
30.9999999999997
31
7.45881134633919e-013
  0
LINE
 8
Group#1
10
77.5980762113533
20
30.9999999999997
30
7.45881134633919e-013
11
77.1213203435597
21
31.6213203435594
31
7.41651184910097e-013
  0
LINE
 8
Group#1
10
77.1213203435597
20
31.6213203435594
30
7.41651184910097e-013
11
76.5
21
32.0980762113529
31
9.44688771653546e-013
  0
LINE
 8
Group#1
10
76.5
20
32.0980762113529
30
9.44688771653546e-013
11
75.7764571353076
21
32.3977774788668
31
8.82649509037492e-013
  0
LINE
 8
Group#1
10
75.7764571353076
20
32.3977774788668
30
8.82649509037492e-013
11
75.0
21
32.4999999999996
31
7.44471151392645e-013
  0
LINE
 8
Group#1
10
22.1022225211328
20
28.7235428646929
30
4.03255207004349e-013
11
22.4019237886467
21
28.0000000000003
31
4.08895139969445e-013
  0
LINE
 8
Group#1
10
22.4019237886467
20
28.0000000000003
30
4.08895139969445e-013
11
22.8786796564404
21
27.3786796564406
31
4.85034234998239e-013
  0
LINE
 8
Group#1
10
22.8786796564404
20
27.3786796564406
30
4.85034234998239e-013
11
23.5
21
26.9019237886471
31
4.03255207004349e-013
  0
LINE
 8
Group#1
10
23.5
20
26.9019237886471
30
4.03255207004349e-013
11
24.2235428646925
21
26.6022225211332
31
4.66704452861677e-013
  0
LINE
 8
Group#1
10
24.2235428646925
20
26.6022225211332
30
4.66704452861677e-013
11
25.0
21
26.5000000000003
31
3.52495810318487e-013
  0
LINE
 8
Group#1
10
25.0
20
26.5000000000003
30
3.52495810318487e-013
11
25.7764571353076
21
26.6022225211332
31
4.66704452861677e-013
  0
LINE
 8
Group#1
10
25.7764571353076
20
26.6022225211332
30
4.66704452861677e-013
11
26.5
21
26.9019237886471
31
4.22994972382185e-013
  0
LINE
 8
Group#1
10
26.5
20
26.9019237886471
30
4.22994972382185e-013
11
27.1213203435597
21
27.3786796564406
31
4.85034234998239e-013
  0
LINE
 8
Group#1
10
27.1213203435597
20
27.3786796564406
30
4.85034234998239e-013
11
27.5980762113533
21
28.0000000000003
31
4.08895139969445e-013
  0
LINE
 8
Group#1
10
27.5980762113533
20
28.0000000000003
30
4.08895139969445e-013
11
27.8977774788672
21
28.7235428646929
31
4.03255207004349e-013
  0
LINE
 8
Group#1
10
27.8977774788672
20
28.7235428646929
30
4.03255207004349e-013
11
28.0
21
29.5000000000002
31
5.11823916582444e-013
  0
LINE
 8
Group#1
10
28.0
20
29.5000000000002
30
5.11823916582444e-013
11
27.8977774788672
21
30.2764571353076
31
6.40132391538373e-013
  0
LINE
 8
Group#1
10
27.8977774788672
20
30.2764571353076
30
6.40132391538373e-013
11
27.5980762113533
21
30.9999999999997
31
7.45881134633919e-013
  0
LINE
 8
Group#1
10
27.5980762113533
20
30.9999999999997
30
7.45881134633919e-013
11
27.1213203435597
21
31.6213203435594
31
7.41651184910097e-013
  0
LINE
 8
Group#1
10
27.1213203435597
20
31.6213203435594
30
7.41651184910097e-013
11
26.5
21
32.0980762113529
31
9.44688771653546e-013
  0
LINE
 8
Group#1
10
26.5
20
32.0980762113529
30
9.44688771653546e-013
11
25.7764571353076
21
32.3977774788668
31
8.71369643107301e-013
  0
LINE
 8
Group#1
10
25.7764571353076
20
32.3977774788668
30
8.71369643107301e-013
11
25.0
21
32.4999999999996
31
7.52931050840289e-013
  0
LINE
 8
Group#1
10
25.0
20
32.4999999999996
30
7.52931050840289e-013
11
24.2235428646925
21
32.3977774788668
31
8.71369643107301e-013
  0
LINE
 8
Group#1
10
24.2235428646925
20
32.3977774788668
30
8.71369643107301e-013
11
23.5
21
32.0980762113529
31
9.44688771653546e-013
  0
LINE
 8
Group#1
10
23.5
20
32.0980762113529
30
9.44688771653546e-013
11
22.8786796564404
21
31.6213203435594
31
7.41651184910097e-013
  0
LINE
 8
Group#1
10
22.8786796564404
20
31.6213203435594
30
7.41651184910097e-013
11
22.4019237886467
21
30.9999999999997
31
7.45881134633919e-013
 0
ENDSEC
 0
EOF
