 0
SECTION
 2
ENTITIES
  0
LINE
 8
Layer0
10
27.8977774788672
20
30.7764571353075
30
-2.32647234810202e-014
11
27.5980762113533
21
31.5
31
-2.32647234810202e-014
  0
LINE
 8
Layer0
10
27.5980762113533
20
31.5
30
-2.32647234810202e-014
11
27.1213203435596
21
32.1213203435596
31
-2.32647234810202e-014
  0
LINE
 8
Layer0
10
20.5
20
56.5
30
-3.32756044940652e-013
11
23.0
21
56.5
31
-3.49675843835939e-013
  0
LINE
 8
Layer0
10
23.0
20
56.5
30
-3.49675843835939e-013
11
23.0
21
60.0
31
-3.10196313080269e-014
  0
LINE
 8
Layer0
10
23.0
20
60.0
30
-3.10196313080269e-014
11
0.0
21
60.0
31
-3.10196313080269e-014
  0
LINE
 8
Layer0
10
0.0
20
60.0
30
-3.10196313080269e-014
11
0.0
21
0.0
31
0.0
  0
LINE
 8
Layer0
10
0.0
20
0.0
30
0.0
11
23.0
21
0.0
31
0.0
  0
LINE
 8
Layer0
10
23.0
20
0.0
30
0.0
11
23.0
21
3.50000000000002
31
-4.22994972382185e-014
  0
LINE
 8
Layer0
10
23.0
20
3.50000000000002
30
-4.22994972382185e-014
11
20.5
21
3.50000000000002
31
-4.22994972382185e-014
  0
LINE
 8
Layer0
10
20.5
20
3.50000000000002
30
-4.22994972382185e-014
11
20.5
21
6.50000000000001
31
-4.51194637207664e-014
  0
LINE
 8
Layer0
10
23.0
20
6.50000000000001
30
-4.51194637207664e-014
11
23.0
21
7.99999999999994
31
1.69197988952871e-014
  0
LINE
 8
Layer0
10
23.0
20
7.99999999999994
30
1.69197988952871e-014
11
27.0
21
7.99999999999994
31
1.69197988952871e-014
  0
LINE
 8
Layer0
10
27.0
20
7.99999999999994
30
1.69197988952871e-014
11
27.0
21
6.50000000000001
31
-4.51194637207664e-014
  0
LINE
 8
Layer0
10
27.0
20
6.50000000000001
30
-4.51194637207664e-014
11
29.5
21
6.50000000000001
31
-4.51194637207664e-014
  0
LINE
 8
Layer0
10
29.5
20
6.50000000000001
30
-4.51194637207664e-014
11
29.5
21
3.50000000000002
31
-4.22994972382185e-014
  0
LINE
 8
Layer0
10
29.5
20
3.50000000000002
30
-4.22994972382185e-014
11
27.0
21
3.50000000000002
31
-4.22994972382185e-014
  0
LINE
 8
Layer0
10
27.0
20
3.50000000000002
30
-4.22994972382185e-014
11
27.0
21
0.0
31
0.0
  0
LINE
 8
Layer0
10
27.0
20
0.0
30
0.0
11
83.0
21
0.0
31
0.0
  0
LINE
 8
Layer0
10
83.0
20
0.0
30
0.0
11
83.0
21
3.50000000000002
31
-4.22994972382185e-014
  0
LINE
 8
Layer0
10
83.0
20
3.50000000000002
30
-4.22994972382185e-014
11
80.5
21
3.50000000000002
31
-4.22994972382185e-014
  0
LINE
 8
Layer0
10
80.5
20
3.50000000000002
30
-4.22994972382185e-014
11
80.5
21
6.50000000000001
31
-4.51194637207664e-014
  0
LINE
 8
Layer0
10
80.5
20
6.50000000000001
30
-4.51194637207664e-014
11
83.0
21
6.50000000000001
31
-4.51194637207664e-014
  0
LINE
 8
Layer0
10
83.0
20
6.50000000000001
30
-4.51194637207664e-014
11
83.0
21
7.99999999999994
31
1.69197988952871e-014
  0
LINE
 8
Layer0
10
83.0
20
7.99999999999994
30
1.69197988952871e-014
11
86.9999999999999
21
7.99999999999994
31
1.69197988952871e-014
  0
LINE
 8
Layer0
10
86.9999999999999
20
7.99999999999994
30
1.69197988952871e-014
11
86.9999999999999
21
6.50000000000001
31
-4.51194637207664e-014
  0
LINE
 8
Layer0
10
89.4999999999999
20
6.50000000000001
30
-4.51194637207664e-014
11
89.4999999999999
21
3.50000000000002
31
-4.22994972382185e-014
  0
LINE
 8
Layer0
10
27.0
20
53.5000000000001
30
3.27116111975556e-013
11
27.0
21
52.0000000000001
31
2.81996648254758e-015
  0
LINE
 8
Layer0
10
89.4999999999999
20
3.50000000000002
30
-4.22994972382185e-014
11
86.9999999999999
21
3.50000000000002
31
-4.22994972382185e-014
  0
LINE
 8
Layer0
10
20.5
20
6.50000000000001
30
-4.51194637207664e-014
11
23.0
21
6.50000000000001
31
-4.51194637207664e-014
  0
LINE
 8
Layer0
10
27.0
20
56.5
30
-3.49675843835939e-013
11
29.5
21
56.5
31
-3.49675843835939e-013
  0
LINE
 8
Layer0
10
23.0
20
53.5000000000001
30
3.27116111975556e-013
11
20.5
21
53.5000000000001
31
2.84816614737337e-013
  0
LINE
 8
Layer0
10
86.9999999999999
20
6.50000000000001
30
-4.51194637207664e-014
11
89.4999999999999
21
6.50000000000001
31
-4.51194637207664e-014
  0
LINE
 8
Layer0
10
86.9999999999999
20
3.50000000000002
30
-4.22994972382185e-014
11
86.9999999999999
21
0.0
31
0.0
  0
LINE
 8
Layer0
10
86.9999999999999
20
0.0
30
0.0
11
110.0
21
0.0
31
0.0
  0
LINE
 8
Layer0
10
110.0
20
0.0
30
0.0
11
110.0
21
60.0
31
-3.10196313080269e-014
  0
LINE
 8
Layer0
10
110.0
20
60.0
30
-3.10196313080269e-014
11
105.0
21
60.0
31
-3.10196313080269e-014
  0
LINE
 8
Layer0
10
86.9999999999997
20
60.0
30
1.40998324127392e-014
11
86.9999999999998
21
56.4999999999999
31
-3.72235575696322e-013
  0
LINE
 8
Layer0
10
86.9999999999998
20
56.4999999999999
30
-3.72235575696322e-013
11
89.4999999999999
21
56.5
31
-3.32756044940652e-013
  0
LINE
 8
Layer0
10
89.4999999999999
20
56.5
30
-3.32756044940652e-013
11
89.4999999999998
21
53.5
31
2.65076849359502e-013
  0
LINE
 8
Layer0
10
89.4999999999998
20
53.5
30
2.65076849359502e-013
11
86.9999999999998
21
53.5
31
2.65076849359502e-013
  0
LINE
 8
Layer0
10
86.9999999999998
20
53.5
30
2.65076849359502e-013
11
86.9999999999999
21
52.0000000000001
31
1.12798659301913e-014
  0
LINE
 8
Layer0
10
86.9999999999999
20
52.0000000000001
30
1.12798659301913e-014
11
82.9999999999999
21
52.0000000000001
31
-5.35793631684101e-014
  0
LINE
 8
Layer0
10
82.9999999999999
20
52.0000000000001
30
-5.35793631684101e-014
11
82.9999999999999
21
53.5
31
3.01736413632625e-013
  0
LINE
 8
Layer0
10
82.9999999999999
20
53.5
30
3.01736413632625e-013
11
80.5
21
53.5000000000001
31
2.73536748807146e-013
  0
LINE
 8
Layer0
10
80.5
20
53.5000000000001
30
2.73536748807146e-013
11
80.4999999999998
21
56.4999999999999
31
-3.72235575696322e-013
  0
LINE
 8
Layer0
10
80.4999999999998
20
56.4999999999999
30
-3.72235575696322e-013
11
82.9999999999999
21
56.5
31
-3.32756044940652e-013
  0
LINE
 8
Layer0
10
82.9999999999999
20
56.5
30
-3.32756044940652e-013
11
82.9999999999999
21
60.0
31
-3.10196313080269e-014
  0
LINE
 8
Layer0
10
65.5264681318918
20
89.034825131284
30
3.41215944388296e-013
11
44.5264681318919
21
89.034825131284
31
3.41215944388296e-013
  0
LINE
 8
Layer0
10
65.5264681318918
20
103.034825131284
30
3.41215944388296e-013
11
65.5264681318918
21
89.034825131284
31
3.41215944388296e-013
  0
LINE
 8
Layer0
10
44.5264681318919
20
103.034825131284
30
3.41215944388296e-013
11
65.5264681318918
21
103.034825131284
31
3.41215944388296e-013
  0
LINE
 8
Layer0
10
44.5264681318919
20
89.034825131284
30
3.41215944388296e-013
11
44.5264681318919
21
103.034825131284
31
3.41215944388296e-013
  0
LINE
 8
Layer0
10
24.4802461239601
20
104.610860080133
30
3.41215944388296e-013
11
24.9968169848926
21
104.535044940993
31
3.41215944388296e-013
  0
LINE
 8
Layer0
10
86.7585189394607
20
105.534825131284
30
3.41215944388296e-013
11
86.9583197844699
21
106.017187041079
31
3.41215944388296e-013
  0
LINE
 8
Layer0
10
23.7265729184731
20
105.034825131284
30
3.41215944388296e-013
11
24.0008993901935
21
104.817790258006
31
3.41215944388296e-013
  0
LINE
 8
Layer0
10
25.5154085224923
20
104.595511517028
30
3.41215944388296e-013
11
26.0006795804848
21
104.788139111007
31
3.41215944388296e-013
  0
LINE
 8
Layer0
10
87.0264681318918
20
108.034825131284
30
3.41215944388296e-013
11
110.026468131892
21
108.034825131284
31
3.41215944388296e-013
  0
LINE
 8
Layer0
10
26.0006795804848
20
104.788139111007
30
3.41215944388296e-013
11
26.3322313621189
21
105.034825131284
31
3.41215944388296e-013
  0
LINE
 8
Layer0
10
23.5914434713412
20
105.141733524959
30
3.41215944388296e-013
11
23.7265729184731
21
105.034825131284
31
3.41215944388296e-013
  0
LINE
 8
Layer0
10
26.7435030051694
20
105.509256389585
30
3.41215944388296e-013
11
26.950433183043
21
105.988603123352
31
3.41215944388296e-013
  0
LINE
 8
Layer0
10
87.0264681318918
20
108.034825131284
30
3.41215944388296e-013
11
87.0264681318918
21
106.534825131284
31
3.41215944388296e-013
  0
LINE
 8
Layer0
10
86.9583197844699
20
106.017187041079
30
3.41215944388296e-013
11
87.0264681318918
21
106.534825131284
31
3.41215944388296e-013
  0
LINE
 8
Layer0
10
24.9968169848926
20
104.535044940993
30
3.41215944388296e-013
11
25.5154085224923
21
104.595511517028
31
3.41215944388296e-013
  0
LINE
 8
Layer0
10
24.0008993901935
20
104.817790258006
30
3.41215944388296e-013
11
24.4802461239601
21
104.610860080133
31
3.41215944388296e-013
  0
LINE
 8
Layer0
10
26.4195597382163
20
105.099800470733
30
3.41215944388296e-013
11
26.7435030051694
21
105.509256389585
31
3.41215944388296e-013
  0
LINE
 8
Layer0
10
83.7240536316797
20
105.034825131284
30
3.41215944388296e-013
11
84.0264681318918
21
104.802774323715
31
3.41215944388296e-013
  0
LINE
 8
Layer0
10
83.6122545695187
20
105.120611568911
30
3.41215944388296e-013
11
83.7240536316797
21
105.034825131284
31
3.41215944388296e-013
  0
LINE
 8
Layer0
10
23.2797821116151
20
105.560613682691
30
3.41215944388296e-013
11
23.5914434713412
21
105.141733524959
31
3.41215944388296e-013
  0
LINE
 8
Layer0
10
23.0871545176357
20
106.045884740683
30
3.41215944388296e-013
11
23.2797821116151
21
105.560613682691
31
3.41215944388296e-013
  0
LINE
 8
Layer0
10
83.2944173243229
20
105.534825131284
30
3.41215944388296e-013
11
83.6122545695187
21
105.120611568911
31
3.41215944388296e-013
  0
LINE
 8
Layer0
10
83.0946164793137
20
106.017187041079
30
3.41215944388296e-013
11
83.2944173243229
21
105.534825131284
31
3.41215944388296e-013
  0
LINE
 8
Layer0
10
83.0264681318918
20
106.534825131284
30
3.41215944388296e-013
11
83.0946164793137
21
106.017187041079
31
3.41215944388296e-013
  0
LINE
 8
Layer0
10
86.0264681318918
20
104.802774323715
30
3.41215944388296e-013
11
86.3288826321038
21
105.034825131284
31
3.41215944388296e-013
  0
LINE
 8
Layer0
10
83.0264681318918
20
106.534825131284
30
3.41215944388296e-013
11
83.0264681318918
21
108.034825131284
31
3.41215944388296e-013
  0
LINE
 8
Layer0
10
27.0264681318919
20
108.034825131284
30
3.41215944388296e-013
11
83.0264681318918
21
108.034825131284
31
3.41215944388296e-013
  0
LINE
 8
Layer0
10
27.0264681318919
20
108.034825131284
30
3.41215944388296e-013
11
27.0262483221832
21
106.505173984285
31
3.41215944388296e-013
  0
LINE
 8
Layer0
10
26.950433183043
20
105.988603123352
30
3.41215944388296e-013
11
27.0262483221832
21
106.505173984285
31
3.41215944388296e-013
  0
LINE
 8
Layer0
10
26.3322313621189
20
105.034825131284
30
3.41215944388296e-013
11
26.4195597382163
21
105.099800470733
31
3.41215944388296e-013
  0
LINE
 8
Layer0
10
23.0266879416006
20
106.564476278283
30
3.41215944388296e-013
11
23.0871545176357
21
106.045884740683
31
3.41215944388296e-013
  0
LINE
 8
Layer0
10
23.0266879416006
20
106.564476278283
30
3.41215944388296e-013
11
23.0264681318919
21
108.034825131284
31
3.41215944388296e-013
  0
LINE
 8
Layer0
10
0.0264681318918641
20
108.034825131284
30
3.41215944388296e-013
11
23.0264681318919
21
108.034825131284
31
3.41215944388296e-013
  0
LINE
 8
Layer0
10
0.0264681318918641
20
62.0348251312839
30
3.41215944388296e-013
11
0.0264681318918641
21
108.034825131284
31
3.41215944388296e-013
  0
LINE
 8
Layer0
10
110.026468131892
20
62.0348251312839
30
3.41215944388296e-013
11
0.0264681318918641
21
62.0348251312839
31
3.41215944388296e-013
  0
LINE
 8
Layer0
10
110.026468131892
20
108.034825131284
30
3.41215944388296e-013
11
110.026468131892
21
62.0348251312839
31
3.41215944388296e-013
  0
LINE
 8
Layer0
10
86.4406816942649
20
105.120611568911
30
3.41215944388296e-013
11
86.7585189394607
21
105.534825131284
31
3.41215944388296e-013
  0
LINE
 8
Layer0
10
86.3288826321038
20
105.034825131284
30
3.41215944388296e-013
11
86.4406816942649
21
105.120611568911
31
3.41215944388296e-013
  0
LINE
 8
Layer0
10
85.5441062220968
20
104.602973478706
30
3.41215944388296e-013
11
86.0264681318918
21
104.802774323715
31
3.41215944388296e-013
  0
LINE
 8
Layer0
10
85.0264681318918
20
104.534825131284
30
3.41215944388296e-013
11
85.5441062220968
21
104.602973478706
31
3.41215944388296e-013
  0
LINE
 8
Layer0
10
84.5088300416867
20
104.602973478706
30
3.41215944388296e-013
11
85.0264681318918
21
104.534825131284
31
3.41215944388296e-013
  0
LINE
 8
Layer0
10
84.0264681318918
20
104.802774323715
30
3.41215944388296e-013
11
84.5088300416867
21
104.602973478706
31
3.41215944388296e-013
  0
LINE
 8
Layer0
10
25.7764571353076
20
32.8977774788672
30
-2.32647234810202e-014
11
25.0
21
33.0
31
-2.32647234810202e-014
  0
LINE
 8
Layer0
10
26.5
20
32.5980762113533
30
-2.32647234810202e-014
11
25.7764571353076
21
32.8977774788672
31
-2.32647234810202e-014
  0
LINE
 8
Layer0
10
105.0
20
51.5
30
-4.22994972382185e-014
11
105.0
21
60.0
31
-3.10196313080269e-014
  0
LINE
 8
Layer0
10
100.630552275941
20
50.7042624127702
30
-1.69197988952874e-013
11
100.279342905747
21
51.0736572700981
31
5.63993296509547e-015
  0
LINE
 8
Layer0
10
101.042262026288
20
50.4037700438145
30
-1.7483792191797e-013
11
100.630552275941
21
50.7042624127702
31
-1.69197988952874e-013
  0
LINE
 8
Layer0
10
100.279342905747
20
51.0736572700981
30
5.63993296509547e-015
11
99.9999999999998
21
51.5
31
-4.22994972382185e-014
  0
LINE
 8
Layer0
10
99.9999999999998
20
60.0
30
-3.10196313080269e-014
11
86.9999999999997
21
60.0
31
1.40998324127392e-014
  0
LINE
 8
Layer0
10
99.9999999999998
20
60.0
30
-3.10196313080269e-014
11
99.9999999999998
21
51.5
31
-4.22994972382185e-014
  0
LINE
 8
Layer0
10
105.0
20
51.5
30
-4.22994972382185e-014
11
104.720657094252
21
51.0736572700981
31
5.63993296509547e-015
  0
LINE
 8
Layer0
10
104.720657094252
20
51.0736572700981
30
5.63993296509547e-015
11
104.369447724059
21
50.7042624127702
31
-1.69197988952874e-013
  0
LINE
 8
Layer0
10
104.369447724059
20
50.7042624127702
30
-1.69197988952874e-013
11
103.957737973711
21
50.4037700438145
31
-1.7483792191797e-013
  0
LINE
 8
Layer0
10
103.957737973711
20
50.4037700438145
30
-1.7483792191797e-013
11
103.498851883293
21
50.1819049083104
31
-1.69197988952874e-013
  0
LINE
 8
Layer0
10
103.498851883293
20
50.1819049083104
30
-1.69197988952874e-013
11
103.007640246736
21
50.045847161588
31
-2.19957385638736e-013
  0
LINE
 8
Layer0
10
103.007640246736
20
50.045847161588
30
-2.19957385638736e-013
11
102.5
21
50.0000000000001
31
-1.7483792191797e-013
  0
LINE
 8
Layer0
10
102.5
20
50.0000000000001
30
-1.7483792191797e-013
11
101.992359753264
21
50.045847161588
31
-2.19957385638736e-013
  0
LINE
 8
Layer0
10
101.992359753264
20
50.045847161588
30
-2.19957385638736e-013
11
101.501148116707
21
50.1819049083104
31
-1.69197988952874e-013
  0
LINE
 8
Layer0
10
101.501148116707
20
50.1819049083104
30
-1.69197988952874e-013
11
101.042262026288
21
50.4037700438145
31
-1.7483792191797e-013
  0
LINE
 8
Layer0
10
22.1022225211328
20
30.7764571353075
30
-2.32647234810202e-014
11
22.0
21
30.0
31
-2.32647234810202e-014
  0
LINE
 8
Layer0
10
22.4019237886467
20
31.5
30
-2.32647234810202e-014
11
22.1022225211328
21
30.7764571353075
31
-2.32647234810202e-014
  0
LINE
 8
Layer0
10
82.9999999999999
20
60.0
30
-3.10196313080269e-014
11
27.0
21
60.0
31
-3.10196313080269e-014
  0
LINE
 8
Layer0
10
27.0
20
60.0
30
-3.10196313080269e-014
11
27.0
21
56.5
31
-3.49675843835939e-013
  0
LINE
 8
Layer0
10
29.5
20
56.5
30
-3.49675843835939e-013
11
29.5
21
53.5000000000001
31
2.79176681772242e-013
  0
LINE
 8
Layer0
10
29.5
20
53.5000000000001
30
2.79176681772242e-013
11
27.0
21
53.5000000000001
31
3.27116111975556e-013
  0
LINE
 8
Layer0
10
27.0
20
52.0000000000001
30
2.81996648254758e-015
11
23.0
21
52.0000000000001
31
-5.35793631684101e-014
  0
LINE
 8
Layer0
10
23.0
20
52.0000000000001
30
-5.35793631684101e-014
11
23.0
21
53.5000000000001
31
3.27116111975556e-013
  0
LINE
 8
Layer0
10
20.5
20
53.5000000000001
30
2.84816614737337e-013
11
20.5
21
56.5
31
-3.32756044940652e-013
  0
LINE
 8
Layer0
10
27.5980762113533
20
28.5
30
-2.32647234810202e-014
11
27.8977774788672
21
29.2235428646924
31
-2.32647234810202e-014
  0
LINE
 8
Layer0
10
27.8977774788672
20
29.2235428646924
30
-2.32647234810202e-014
11
28.0
21
30.0
31
-2.32647234810202e-014
  0
LINE
 8
Layer0
10
23.5
20
27.4019237886466
30
-2.32647234810202e-014
11
24.2235428646924
21
27.1022225211328
31
-2.32647234810202e-014
  0
LINE
 8
Layer0
10
27.1213203435596
20
27.8786796564403
30
-2.32647234810202e-014
11
27.5980762113533
21
28.5
31
-2.32647234810202e-014
  0
LINE
 8
Layer0
10
25.0
20
27.0
30
-2.32647234810202e-014
11
25.7764571353076
21
27.1022225211328
31
-2.32647234810202e-014
  0
LINE
 8
Layer0
10
24.2235428646924
20
27.1022225211328
30
-2.32647234810202e-014
11
25.0
21
27.0
31
-2.32647234810202e-014
  0
LINE
 8
Layer0
10
24.2235428646924
20
32.8977774788672
30
-2.32647234810202e-014
11
23.5
21
32.5980762113533
31
-2.32647234810202e-014
  0
LINE
 8
Layer0
10
26.5
20
27.4019237886466
30
-2.32647234810202e-014
11
27.1213203435596
21
27.8786796564403
31
-2.32647234810202e-014
  0
LINE
 8
Layer0
10
25.0
20
33.0
30
-2.32647234810202e-014
11
24.2235428646924
21
32.8977774788672
31
-2.32647234810202e-014
  0
LINE
 8
Layer0
10
27.1213203435596
20
32.1213203435596
30
-2.32647234810202e-014
11
26.5
21
32.5980762113533
31
-2.32647234810202e-014
  0
LINE
 8
Layer0
10
22.8786796564404
20
27.8786796564403
30
-2.32647234810202e-014
11
23.5
21
27.4019237886466
31
-2.32647234810202e-014
  0
LINE
 8
Layer0
10
25.7764571353076
20
27.1022225211328
30
-2.32647234810202e-014
11
26.5
21
27.4019237886466
31
-2.32647234810202e-014
  0
LINE
 8
Layer0
10
58.0
20
30.0
30
-1.49526352106418e-014
11
57.8977774788672
21
30.7764571353075
31
-1.49526352106418e-014
  0
LINE
 8
Layer0
10
57.8977774788672
20
30.7764571353075
30
-1.49526352106418e-014
11
57.5980762113533
21
31.5
31
-1.49526352106418e-014
  0
LINE
 8
Layer0
10
28.0
20
30.0
30
-2.32647234810202e-014
11
27.8977774788672
21
30.7764571353075
31
-2.32647234810202e-014
  0
LINE
 8
Layer0
10
82.4019237886465
20
31.5
30
-2.32647234810202e-014
11
82.1022225211326
21
30.7764571353075
31
-2.32647234810202e-014
  0
LINE
 8
Layer0
10
56.5
20
32.5980762113533
30
-1.49526352106418e-014
11
55.7764571353076
21
32.8977774788672
31
-1.49526352106418e-014
  0
LINE
 8
Layer0
10
55.0
20
33.0
30
-1.49526352106418e-014
11
54.2235428646924
21
32.8977774788672
31
-1.49526352106418e-014
  0
LINE
 8
Layer0
10
82.1022225211326
20
30.7764571353075
30
-2.32647234810202e-014
11
81.9999999999998
21
30.0
31
-2.32647234810202e-014
  0
LINE
 8
Layer0
10
54.2235428646924
20
32.8977774788672
30
-1.49526352106418e-014
11
53.5
21
32.5980762113533
31
-1.49526352106418e-014
  0
LINE
 8
Layer0
10
81.9999999999998
20
30.0
30
-2.32647234810202e-014
11
82.1022225211326
21
29.2235428646924
31
-2.32647234810202e-014
  0
LINE
 8
Layer0
10
52.1022225211328
20
29.2235428646924
30
-1.49526352106418e-014
11
52.4019237886467
21
28.5
31
-1.49526352106418e-014
  0
LINE
 8
Layer0
10
82.1022225211326
20
29.2235428646924
30
-2.32647234810202e-014
11
82.4019237886465
21
28.5
31
-2.32647234810202e-014
  0
LINE
 8
Layer0
10
52.8786796564404
20
27.8786796564403
30
-1.49526352106418e-014
11
53.5
21
27.4019237886467
31
-1.49526352106418e-014
  0
LINE
 8
Layer0
10
53.5
20
27.4019237886467
30
-1.49526352106418e-014
11
54.2235428646924
21
27.1022225211328
31
-1.49526352106418e-014
  0
LINE
 8
Layer0
10
82.4019237886465
20
28.5
30
-2.32647234810202e-014
11
82.8786796564402
21
27.8786796564403
31
-2.32647234810202e-014
  0
LINE
 8
Layer0
10
55.0
20
27.0
30
-1.49526352106418e-014
11
55.7764571353076
21
27.1022225211328
31
-1.49526352106418e-014
  0
LINE
 8
Layer0
10
82.8786796564402
20
27.8786796564403
30
-2.32647234810202e-014
11
83.4999999999998
21
27.4019237886467
31
-2.32647234810202e-014
  0
LINE
 8
Layer0
10
55.7764571353076
20
27.1022225211328
30
-1.49526352106418e-014
11
56.5
21
27.4019237886467
31
-1.49526352106418e-014
  0
LINE
 8
Layer0
10
56.5
20
27.4019237886467
30
-1.49526352106418e-014
11
57.1213203435596
21
27.8786796564403
31
-1.49526352106418e-014
  0
LINE
 8
Layer0
10
86.4999999999998
20
32.5980762113533
30
-2.32647234810202e-014
11
85.7764571353074
21
32.8977774788672
31
-2.32647234810202e-014
  0
LINE
 8
Layer0
10
83.4999999999998
20
27.4019237886467
30
-2.32647234810202e-014
11
84.2235428646922
21
27.1022225211328
31
-2.32647234810202e-014
  0
LINE
 8
Layer0
10
57.1213203435596
20
27.8786796564403
30
-1.49526352106418e-014
11
57.5980762113533
21
28.5
31
-1.49526352106418e-014
  0
LINE
 8
Layer0
10
84.2235428646922
20
27.1022225211328
30
-2.32647234810202e-014
11
84.9999999999998
21
27.0
31
-2.32647234810202e-014
  0
LINE
 8
Layer0
10
57.5980762113533
20
28.5
30
-1.49526352106418e-014
11
57.8977774788672
21
29.2235428646924
31
-1.49526352106418e-014
  0
LINE
 8
Layer0
10
87.897777478867
20
30.7764571353075
30
-2.32647234810202e-014
11
87.5980762113531
21
31.5
31
-2.32647234810202e-014
  0
LINE
 8
Layer0
10
57.8977774788672
20
29.2235428646924
30
-1.49526352106418e-014
11
58.0
21
30.0
31
-1.49526352106418e-014
  0
LINE
 8
Layer0
10
57.1213203435596
20
32.1213203435596
30
-1.49526352106418e-014
11
56.5
21
32.5980762113533
31
-1.49526352106418e-014
  0
LINE
 8
Layer0
10
57.5980762113533
20
31.5
30
-1.49526352106418e-014
11
57.1213203435596
21
32.1213203435596
31
-1.49526352106418e-014
  0
LINE
 8
Layer0
10
55.7764571353076
20
32.8977774788672
30
-1.49526352106418e-014
11
55.0
21
33.0
31
-1.49526352106418e-014
  0
LINE
 8
Layer0
10
53.5
20
32.5980762113533
30
-1.49526352106418e-014
11
52.8786796564404
21
32.1213203435596
31
-1.49526352106418e-014
  0
LINE
 8
Layer0
10
52.8786796564404
20
32.1213203435596
30
-1.49526352106418e-014
11
52.4019237886467
21
31.5
31
-1.49526352106418e-014
  0
LINE
 8
Layer0
10
52.4019237886467
20
31.5
30
-1.49526352106418e-014
11
52.1022225211328
21
30.7764571353075
31
-1.49526352106418e-014
  0
LINE
 8
Layer0
10
52.1022225211328
20
30.7764571353075
30
-1.49526352106418e-014
11
52.0
21
30.0
31
-1.49526352106418e-014
  0
LINE
 8
Layer0
10
52.0
20
30.0
30
-1.49526352106418e-014
11
52.1022225211328
21
29.2235428646924
31
-1.49526352106418e-014
  0
LINE
 8
Layer0
10
52.4019237886467
20
28.5
30
-1.49526352106418e-014
11
52.8786796564404
21
27.8786796564403
31
-1.49526352106418e-014
  0
LINE
 8
Layer0
10
54.2235428646924
20
27.1022225211328
30
-1.49526352106418e-014
11
55.0
21
27.0
31
-1.49526352106418e-014
  0
LINE
 8
Layer0
10
82.8786796564402
20
32.1213203435596
30
-2.32647234810202e-014
11
82.4019237886465
21
31.5
31
-2.32647234810202e-014
  0
LINE
 8
Layer0
10
83.4999999999998
20
32.5980762113533
30
-2.32647234810202e-014
11
82.8786796564402
21
32.1213203435596
31
-2.32647234810202e-014
  0
LINE
 8
Layer0
10
87.1213203435594
20
27.8786796564403
30
-2.32647234810202e-014
11
87.5980762113531
21
28.5
31
-2.32647234810202e-014
  0
LINE
 8
Layer0
10
84.2235428646922
20
32.8977774788672
30
-2.32647234810202e-014
11
83.4999999999998
21
32.5980762113533
31
-2.32647234810202e-014
  0
LINE
 8
Layer0
10
84.9999999999998
20
27.0
30
-2.32647234810202e-014
11
85.7764571353074
21
27.1022225211328
31
-2.32647234810202e-014
  0
LINE
 8
Layer0
10
85.7764571353074
20
27.1022225211328
30
-2.32647234810202e-014
11
86.4999999999998
21
27.4019237886467
31
-2.32647234810202e-014
  0
LINE
 8
Layer0
10
86.4999999999998
20
27.4019237886467
30
-2.32647234810202e-014
11
87.1213203435594
21
27.8786796564403
31
-2.32647234810202e-014
  0
LINE
 8
Layer0
10
22.0
20
30.0
30
-2.32647234810202e-014
11
22.1022225211328
21
29.2235428646924
31
-2.32647234810202e-014
  0
LINE
 8
Layer0
10
22.4019237886467
20
28.5
30
-2.32647234810202e-014
11
22.8786796564404
21
27.8786796564403
31
-2.32647234810202e-014
  0
LINE
 8
Layer0
10
22.8786796564404
20
32.1213203435596
30
-2.32647234810202e-014
11
22.4019237886467
21
31.5
31
-2.32647234810202e-014
  0
LINE
 8
Layer0
10
22.1022225211328
20
29.2235428646924
30
-2.32647234810202e-014
11
22.4019237886467
21
28.5
31
-2.32647234810202e-014
  0
LINE
 8
Layer0
10
23.5
20
32.5980762113533
30
-2.32647234810202e-014
11
22.8786796564404
21
32.1213203435596
31
-2.32647234810202e-014
  0
LINE
 8
Layer0
10
84.9999999999998
20
33.0
30
-2.32647234810202e-014
11
84.2235428646922
21
32.8977774788672
31
-2.32647234810202e-014
  0
LINE
 8
Layer0
10
85.7764571353074
20
32.8977774788672
30
-2.32647234810202e-014
11
84.9999999999998
21
33.0
31
-2.32647234810202e-014
  0
LINE
 8
Layer0
10
87.5980762113531
20
28.5
30
-2.32647234810202e-014
11
87.897777478867
21
29.2235428646924
31
-2.32647234810202e-014
  0
LINE
 8
Layer0
10
87.5980762113531
20
31.5
30
-2.32647234810202e-014
11
87.1213203435594
21
32.1213203435596
31
-2.32647234810202e-014
  0
LINE
 8
Layer0
10
87.1213203435594
20
32.1213203435596
30
-2.32647234810202e-014
11
86.4999999999998
21
32.5980762113533
31
-2.32647234810202e-014
  0
LINE
 8
Layer0
10
87.897777478867
20
29.2235428646924
30
-2.32647234810202e-014
11
87.9999999999998
21
30.0
31
-2.32647234810202e-014
  0
LINE
 8
Layer0
10
87.9999999999998
20
30.0
30
-2.32647234810202e-014
11
87.897777478867
21
30.7764571353075
31
-2.32647234810202e-014
 0
ENDSEC
 0
EOF
