 0
SECTION
 2
ENTITIES
  0
LINE
 8
Layer0
10
110.000620858992
20
177.434709325627
30
0.0
11
110.000620858992
21
131.434709325627
31
0.0
  0
LINE
 8
Layer0
10
110.000620858992
20
131.434709325627
30
0.0
11
0.000620858991867745
21
131.434709325627
31
0.0
  0
LINE
 8
Layer0
10
0.000620858991867745
20
131.434709325627
30
0.0
11
0.000620858991867745
21
177.434709325627
31
0.0
  0
LINE
 8
Layer0
10
0.000620858991867745
20
177.434709325627
30
0.0
11
23.0006208589919
21
177.434709325627
31
0.0
  0
LINE
 8
Layer0
10
23.0008406687005
20
175.964360472627
30
0.0
11
23.0006208589919
21
177.434709325627
31
0.0
  0
LINE
 8
Layer0
10
23.0008406687005
20
175.964360472627
30
0.0
11
23.0613072447357
21
175.445768935027
31
0.0
  0
LINE
 8
Layer0
10
26.3063840892188
20
174.434709325627
30
0.0
11
26.3937124653162
21
174.499684665077
31
0.0
  0
LINE
 8
Layer0
10
26.924585910143
20
175.388487317695
30
0.0
11
27.0004010492832
21
175.905058178628
31
0.0
  0
LINE
 8
Layer0
10
27.0006208589919
20
177.434709325627
30
0.0
11
27.0004010492832
21
175.905058178628
31
0.0
  0
LINE
 8
Layer0
10
27.0006208589919
20
177.434709325627
30
0.0
11
83.0006208589918
21
177.434709325627
31
0.0
  0
LINE
 8
Layer0
10
83.0006208589918
20
175.934709325627
30
0.0
11
83.0006208589918
21
177.434709325627
31
0.0
  0
LINE
 8
Layer0
10
86.0006208589918
20
174.202658518058
30
0.0
11
86.3030353592039
21
174.434709325627
31
0.0
  0
LINE
 8
Layer0
10
83.0006208589918
20
175.934709325627
30
0.0
11
83.0687692064137
21
175.417071235422
31
0.0
  0
LINE
 8
Layer0
10
83.0687692064137
20
175.417071235422
30
0.0
11
83.2685700514229
21
174.934709325627
31
0.0
  0
LINE
 8
Layer0
10
83.2685700514229
20
174.934709325627
30
0.0
11
83.5864072966187
21
174.520495763254
31
0.0
  0
LINE
 8
Layer0
10
23.0613072447357
20
175.445768935027
30
0.0
11
23.2539348387151
21
174.960497877034
31
0.0
  0
LINE
 8
Layer0
10
23.2539348387151
20
174.960497877034
30
0.0
11
23.5655961984412
21
174.541617719303
31
0.0
  0
LINE
 8
Layer0
10
83.5864072966187
20
174.520495763254
30
0.0
11
83.6982063587798
21
174.434709325627
31
0.0
  0
LINE
 8
Layer0
10
83.6982063587798
20
174.434709325627
30
0.0
11
84.0006208589918
21
174.202658518058
31
0.0
  0
LINE
 8
Layer0
10
26.3937124653162
20
174.499684665077
30
0.0
11
26.7176557322694
21
174.909140583929
31
0.0
  0
LINE
 8
Layer0
10
23.9750521172935
20
174.21767445235
30
0.0
11
24.45439885106
21
174.010744274476
31
0.0
  0
LINE
 8
Layer0
10
24.9709697119926
20
173.934929135336
30
0.0
11
25.4895612495923
21
173.995395711371
31
0.0
  0
LINE
 8
Layer0
10
86.9324725115699
20
175.417071235422
30
0.0
11
87.0006208589918
21
175.934709325627
31
0.0
  0
LINE
 8
Layer0
10
87.0006208589918
20
177.434709325627
30
0.0
11
87.0006208589918
21
175.934709325627
31
0.0
  0
LINE
 8
Layer0
10
26.7176557322694
20
174.909140583929
30
0.0
11
26.924585910143
21
175.388487317695
31
0.0
  0
LINE
 8
Layer0
10
23.5655961984412
20
174.541617719303
30
0.0
11
23.7007256455731
21
174.434709325627
31
0.0
  0
LINE
 8
Layer0
10
25.9748323075848
20
174.18802330535
30
0.0
11
26.3063840892188
21
174.434709325627
31
0.0
  0
LINE
 8
Layer0
10
87.0006208589918
20
177.434709325627
30
0.0
11
110.000620858992
21
177.434709325627
31
0.0
  0
LINE
 8
Layer0
10
25.4895612495923
20
173.995395711371
30
0.0
11
25.9748323075848
21
174.18802330535
31
0.0
  0
LINE
 8
Layer0
10
23.7007256455731
20
174.434709325627
30
0.0
11
23.9750521172935
21
174.21767445235
31
0.0
  0
LINE
 8
Layer0
10
86.7326716665607
20
174.934709325627
30
0.0
11
86.9324725115699
21
175.417071235422
31
0.0
  0
LINE
 8
Layer0
10
24.45439885106
20
174.010744274476
30
0.0
11
24.9709697119926
21
173.934929135336
31
0.0
  0
LINE
 8
Layer0
10
84.0006208589918
20
174.202658518058
30
0.0
11
84.4829827687868
21
174.002857673049
31
0.0
  0
LINE
 8
Layer0
10
84.4829827687868
20
174.002857673049
30
0.0
11
85.0006208589918
21
173.934709325627
31
0.0
  0
LINE
 8
Layer0
10
85.0006208589918
20
173.934709325627
30
0.0
11
85.5182589491969
21
174.002857673049
31
0.0
  0
LINE
 8
Layer0
10
85.5182589491969
20
174.002857673049
30
0.0
11
86.0006208589918
21
174.202658518058
31
0.0
  0
LINE
 8
Layer0
10
86.3030353592039
20
174.434709325627
30
0.0
11
86.4148344213649
21
174.520495763254
31
0.0
  0
LINE
 8
Layer0
10
86.4148344213649
20
174.520495763254
30
0.0
11
86.7326716665607
21
174.934709325627
31
0.0
  0
LINE
 8
Layer0
10
45.5006208589919
20
160.434709325627
30
0.0
11
45.5006208589919
21
172.434709325627
31
0.0
  0
LINE
 8
Layer0
10
45.5006208589919
20
172.434709325627
30
0.0
11
64.5006208589919
21
172.434709325627
31
0.0
  0
LINE
 8
Layer0
10
64.5006208589919
20
172.434709325627
30
0.0
11
64.5006208589919
21
160.434709325627
31
0.0
  0
LINE
 8
Layer0
10
64.5006208589919
20
160.434709325627
30
0.0
11
45.5006208589919
21
160.434709325627
31
0.0
 0
ENDSEC
 0
EOF
