  0
SECTION
  2
HEADER
  9
$ACADVER
  1
AC1014
  9
$ACADMAINTVER
 70
     9
  9
$DWGCODEPAGE
  3
ANSI_1252
  9
$INSBASE
 10
0.0
 20
0.0
 30
0.0
  9
$EXTMIN
 10
1.000000000000000E+20
 20
1.000000000000000E+20
 30
1.000000000000000E+20
  9
$EXTMAX
 10
-1.000000000000000E+20
 20
-1.000000000000000E+20
 30
-1.000000000000000E+20
  9
$LIMMIN
 10
0.0
 20
0.0
  9
$LIMMAX
 10
12.0
 20
9.0
  9
$ORTHOMODE
 70
     0
  9
$REGENMODE
 70
     1
  9
$FILLMODE
 70
     1
  9
$QTEXTMODE
 70
     0
  9
$MIRRTEXT
 70
     1
  9
$DRAGMODE
 70
     2
  9
$LTSCALE
 40
1.0
  9
$OSMODE
 70
    37
  9
$ATTMODE
 70
     1
  9
$TEXTSIZE
 40
0.2
  9
$TRACEWID
 40
0.05
  9
$TEXTSTYLE
  7
STANDARD
  9
$CLAYER
  8
0
  9
$CELTYPE
  6
BYLAYER
  9
$CECOLOR
 62
   256
  9
$CELTSCALE
 40
1.0
  9
$DELOBJ
 70
     1
  9
$DISPSILH
 70
     0
  9
$DIMSCALE
 40
1.0
  9
$DIMASZ
 40
0.18
  9
$DIMEXO
 40
0.0625
  9
$DIMDLI
 40
0.38
  9
$DIMRND
 40
0.0
  9
$DIMDLE
 40
0.0
  9
$DIMEXE
 40
0.18
  9
$DIMTP
 40
0.0
  9
$DIMTM
 40
0.0
  9
$DIMTXT
 40
0.18
  9
$DIMCEN
 40
0.09
  9
$DIMTSZ
 40
0.0
  9
$DIMTOL
 70
     0
  9
$DIMLIM
 70
     0
  9
$DIMTIH
 70
     1
  9
$DIMTOH
 70
     1
  9
$DIMSE1
 70
     0
  9
$DIMSE2
 70
     0
  9
$DIMTAD
 70
     0
  9
$DIMZIN
 70
     0
  9
$DIMBLK
  1

  9
$DIMASO
 70
     1
  9
$DIMSHO
 70
     1
  9
$DIMPOST
  1

  9
$DIMAPOST
  1

  9
$DIMALT
 70
     0
  9
$DIMALTD
 70
     2
  9
$DIMALTF
 40
25.4
  9
$DIMLFAC
 40
1.0
  9
$DIMTOFL
 70
     0
  9
$DIMTVP
 40
0.0
  9
$DIMTIX
 70
     0
  9
$DIMSOXD
 70
     0
  9
$DIMSAH
 70
     0
  9
$DIMBLK1
  1

  9
$DIMBLK2
  1

  9
$DIMSTYLE
  2
STANDARD
  9
$DIMCLRD
 70
     0
  9
$DIMCLRE
 70
     0
  9
$DIMCLRT
 70
     0
  9
$DIMTFAC
 40
1.0
  9
$DIMGAP
 40
0.09
  9
$DIMJUST
 70
     0
  9
$DIMSD1
 70
     0
  9
$DIMSD2
 70
     0
  9
$DIMTOLJ
 70
     1
  9
$DIMTZIN
 70
     0
  9
$DIMALTZ
 70
     0
  9
$DIMALTTZ
 70
     0
  9
$DIMFIT
 70
     3
  9
$DIMUPT
 70
     0
  9
$DIMUNIT
 70
     2
  9
$DIMDEC
 70
     4
  9
$DIMTDEC
 70
     4
  9
$DIMALTU
 70
     2
  9
$DIMALTTD
 70
     2
  9
$DIMTXSTY
  7
STANDARD
  9
$DIMAUNIT
 70
     0
  9
$LUNITS
 70
     2
  9
$LUPREC
 70
     4
  9
$SKETCHINC
 40
0.1
  9
$FILLETRAD
 40
0.5
  9
$AUNITS
 70
     0
  9
$AUPREC
 70
     0
  9
$MENU
  1
.
  9
$ELEVATION
 40
0.0
  9
$PELEVATION
 40
0.0
  9
$THICKNESS
 40
0.0
  9
$LIMCHECK
 70
     0
  9
$CHAMFERA
 40
0.5
  9
$CHAMFERB
 40
0.5
  9
$CHAMFERC
 40
1.0
  9
$CHAMFERD
 40
0.0
  9
$SKPOLY
 70
     0
  9
$TDCREATE
 40
2456693.702484132
  9
$TDUPDATE
 40
2456693.702484143
  9
$TDINDWG
 40
0.0000000116
  9
$TDUSRTIMER
 40
0.0000000116
  9
$USRTIMER
 70
     1
  9
$ANGBASE
 50
0.0
  9
$ANGDIR
 70
     0
  9
$PDMODE
 70
     0
  9
$PDSIZE
 40
0.0
  9
$PLINEWID
 40
0.0
  9
$COORDS
 70
     1
  9
$SPLFRAME
 70
     0
  9
$SPLINETYPE
 70
     6
  9
$SPLINESEGS
 70
     8
  9
$ATTDIA
 70
     0
  9
$ATTREQ
 70
     1
  9
$HANDLING
 70
     1
  9
$HANDSEED
  5
139
  9
$SURFTAB1
 70
     6
  9
$SURFTAB2
 70
     6
  9
$SURFTYPE
 70
     6
  9
$SURFU
 70
     6
  9
$SURFV
 70
     6
  9
$UCSNAME
  2

  9
$UCSORG
 10
0.0
 20
0.0
 30
0.0
  9
$UCSXDIR
 10
1.0
 20
0.0
 30
0.0
  9
$UCSYDIR
 10
0.0
 20
1.0
 30
0.0
  9
$PUCSNAME
  2

  9
$PUCSORG
 10
0.0
 20
0.0
 30
0.0
  9
$PUCSXDIR
 10
1.0
 20
0.0
 30
0.0
  9
$PUCSYDIR
 10
0.0
 20
1.0
 30
0.0
  9
$USERI1
 70
     0
  9
$USERI2
 70
     0
  9
$USERI3
 70
     0
  9
$USERI4
 70
     0
  9
$USERI5
 70
     0
  9
$USERR1
 40
0.0
  9
$USERR2
 40
0.0
  9
$USERR3
 40
0.0
  9
$USERR4
 40
0.0
  9
$USERR5
 40
0.0
  9
$WORLDVIEW
 70
     1
  9
$SHADEDGE
 70
     3
  9
$SHADEDIF
 70
    70
  9
$TILEMODE
 70
     1
  9
$MAXACTVP
 70
    64
  9
$PINSBASE
 10
0.0
 20
0.0
 30
0.0
  9
$PLIMCHECK
 70
     0
  9
$PEXTMIN
 10
1.000000000000000E+20
 20
1.000000000000000E+20
 30
1.000000000000000E+20
  9
$PEXTMAX
 10
-1.000000000000000E+20
 20
-1.000000000000000E+20
 30
-1.000000000000000E+20
  9
$PLIMMIN
 10
0.0
 20
0.0
  9
$PLIMMAX
 10
12.0
 20
9.0
  9
$UNITMODE
 70
     0
  9
$VISRETAIN
 70
     1
  9
$PLINEGEN
 70
     0
  9
$PSLTSCALE
 70
     1
  9
$TREEDEPTH
 70
  3020
  9
$PICKSTYLE
 70
     1
  9
$CMLSTYLE
  2
STANDARD
  9
$CMLJUST
 70
     0
  9
$CMLSCALE
 40
1.0
  9
$PROXYGRAPHICS
 70
     1
  9
$MEASUREMENT
 70
     0
  0
ENDSEC
  0
SECTION
  2
CLASSES
  0
CLASS
  1
ACDBDICTIONARYWDFLT
  2
AcDbDictionaryWithDefault
  3
ObjectDBX Classes
 90
        0
280
     0
281
     0
  0
CLASS
  1
VISUALSTYLE
  2
AcDbVisualStyle
  3
ObjectDBX Classes
 90
     4095
280
     0
281
     0
  0
CLASS
  1
MATERIAL
  2
AcDbMaterial
  3
ObjectDBX Classes
 90
     1153
280
     0
281
     0
  0
CLASS
  1
DICTIONARYVAR
  2
AcDbDictionaryVar
  3
ObjectDBX Classes
 90
        0
280
     0
281
     0
  0
CLASS
  1
XRECORD
  2
AcDbXrecord
  3
AutoCAD 2000
 90
        0
280
     0
281
     0
  0
CLASS
  1
LWPOLYLINE
  2
AcDbPolyline
  3
AutoCAD 2000
 90
        0
280
     0
281
     1
  0
CLASS
  1
HATCH
  2
AcDbHatch
  3
AutoCAD 2000
 90
        0
280
     0
281
     1
  0
CLASS
  1
ACDBPLACEHOLDER
  2
AcDbPlaceHolder
  3
ObjectDBX Classes
 90
        0
280
     0
281
     0
  0
CLASS
  1
LAYOUT
  2
AcDbLayout
  3
ObjectDBX Classes
 90
        0
280
     0
281
     0
  0
ENDSEC
  0
SECTION
  2
TABLES
  0
TABLE
  2
VPORT
  5
8
330
0
100
AcDbSymbolTable
 70
     1
  0
VPORT
  5
29
330
8
100
AcDbSymbolTableRecord
100
AcDbViewportTableRecord
  2
*ACTIVE
 70
     0
 10
0.0
 20
0.0
 11
1.0
 21
1.0
 12
0.0
 22
0.0
 13
0.0
 23
0.0
 14
0.5
 24
0.5
 15
0.5
 25
0.5
 16
0.0
 26
0.0
 36
1.0
 17
0.0
 27
0.0
 37
-1000.0
 40
399.0070262780334
 41
2.049197860962567
 42
50.0
 43
71971.67806167177
 44
87993.32429759884
 50
0.0
 51
0.0
 71
     0
 72
   100
 73
     1
 74
     3
 75
     0
 76
     0
 77
     0
 78
     0
  0
ENDTAB
  0
TABLE
  2
LTYPE
  5
5
330
0
100
AcDbSymbolTable
 70
     1
  0
LTYPE
  5
14
330
5
100
AcDbSymbolTableRecord
100
AcDbLinetypeTableRecord
  2
BYBLOCK
 70
     0
  3

 72
    65
 73
     0
 40
0.0
  0
LTYPE
  5
15
330
5
100
AcDbSymbolTableRecord
100
AcDbLinetypeTableRecord
  2
BYLAYER
 70
     0
  3

 72
    65
 73
     0
 40
0.0
  0
LTYPE
  5
16
330
5
100
AcDbSymbolTableRecord
100
AcDbLinetypeTableRecord
  2
CONTINUOUS
 70
     0
  3
Solid line
 72
    65
 73
     0
 40
0.0
  0
ENDTAB
  0
TABLE
  2
LAYER
  5
2
330
0
100
AcDbSymbolTable
 70
     3
  0
LAYER
  5
10
330
2
100
AcDbSymbolTableRecord
100
AcDbLayerTableRecord
  2
0
 70
     0
 62
     7
  6
CONTINUOUS
  0
LAYER
  5
3F
330
2
100
AcDbSymbolTableRecord
100
AcDbLayerTableRecord
  2
PROFILEEDGES
 70
     0
 62
     7
  6
CONTINUOUS
  0
LAYER
  5
40
330
2
100
AcDbSymbolTableRecord
100
AcDbLayerTableRecord
  2
SECTIONCUTEDGES
 70
     0
 62
     7
  6
CONTINUOUS
  0
ENDTAB
  0
TABLE
  2
STYLE
  5
3
330
0
100
AcDbSymbolTable
 70
     1
  0
STYLE
  5
11
330
3
100
AcDbSymbolTableRecord
100
AcDbTextStyleTableRecord
  2
STANDARD
 70
     0
 40
0.0
 41
1.0
 50
0.0
 71
     0
 42
0.2
  3
txt
  4

  0
ENDTAB
  0
TABLE
  2
VIEW
  5
6
330
0
100
AcDbSymbolTable
 70
     0
  0
ENDTAB
  0
TABLE
  2
UCS
  5
7
330
0
100
AcDbSymbolTable
 70
     0
  0
ENDTAB
  0
TABLE
  2
APPID
  5
9
330
0
100
AcDbSymbolTable
 70
     1
  0
APPID
  5
12
330
9
100
AcDbSymbolTableRecord
100
AcDbRegAppTableRecord
  2
ACAD
 70
     0
  0
ENDTAB
  0
TABLE
  2
DIMSTYLE
  5
A
330
0
100
AcDbSymbolTable
 70
     1
  0
DIMSTYLE
105
27
330
A
100
AcDbSymbolTableRecord
100
AcDbDimStyleTableRecord
  2
STANDARD
 70
     0
  3

  4

  5

  6

  7

 40
1.0
 41
0.18
 42
0.0625
 43
0.38
 44
0.18
 45
0.0
 46
0.0
 47
0.0
 48
0.0
140
0.18
141
0.09
142
0.0
143
25.4
144
1.0
145
0.0
146
1.0
147
0.09
 71
     0
 72
     0
 73
     1
 74
     1
 75
     0
 76
     0
 77
     0
 78
     0
170
     0
171
     2
172
     0
173
     0
174
     0
175
     0
176
     0
177
     0
178
     0
270
     2
271
     4
272
     4
273
     2
274
     2
340
11
275
     0
280
     0
281
     0
282
     0
283
     1
284
     0
285
     0
286
     0
287
     3
288
     0
  0
ENDTAB
  0
TABLE
  2
BLOCK_RECORD
  5
1
330
0
100
AcDbSymbolTable
 70
     1
  0
BLOCK_RECORD
  5
1F
330
1
100
AcDbSymbolTableRecord
100
AcDbBlockTableRecord
  2
*MODEL_SPACE
  0
BLOCK_RECORD
  5
1B
330
1
100
AcDbSymbolTableRecord
100
AcDbBlockTableRecord
  2
*PAPER_SPACE
  0
ENDTAB
  0
ENDSEC
  0
SECTION
  2
BLOCKS
  0
BLOCK
  5
20
330
1F
100
AcDbEntity
  8
0
100
AcDbBlockBegin
  2
*MODEL_SPACE
 70
     0
 10
0.0
 20
0.0
 30
0.0
  3
*MODEL_SPACE
  1

  0
ENDBLK
  5
21
330
1F
100
AcDbEntity
  8
0
100
AcDbBlockEnd
  0
BLOCK
  5
1C
330
1B
100
AcDbEntity
 67
     1
  8
0
100
AcDbBlockBegin
  2
*PAPER_SPACE
 70
     0
 10
0.0
 20
0.0
 30
0.0
  3
*PAPER_SPACE
  1

  0
ENDBLK
  5
1D
330
1B
100
AcDbEntity
 67
     1
  8
0
100
AcDbBlockEnd
  0
ENDSEC
  0
SECTION
  2
ENTITIES
  0
LINE
  5
41
330
1F
100
AcDbEntity
  8
0
100
AcDbLine
 10
-24.00031042949609
 20
-38.70690361969308
 30
0.0
 11
-88.00031042949617
 21
-38.70690361969281
 31
0.0
  0
LINE
  5
42
330
1F
100
AcDbEntity
  8
0
100
AcDbLine
 10
-111.0003104294961
 20
-28.70690361969394
 30
0.0
 11
-1.000310429495904
 21
-28.70690361969312
 31
0.0
  0
LINE
  5
43
330
1F
100
AcDbEntity
  8
0
100
AcDbLine
 10
-1.000310429495904
 20
-28.70690361969312
 30
0.0
 11
-1.000310429496355
 21
-88.70690361969328
 31
0.0
  0
LINE
  5
44
330
1F
100
AcDbEntity
  8
0
100
AcDbLine
 10
-1.000310429496355
 20
-88.70690361969328
 30
0.0
 11
-111.0003104294964
 21
-88.70690361969304
 31
0.0
  0
LINE
  5
45
330
1F
100
AcDbEntity
  8
0
100
AcDbLine
 10
-111.0003104294964
 20
-88.70690361969304
 30
0.0
 11
-111.0003104294961
 21
-28.70690361969394
 31
0.0
  0
LINE
  5
46
330
1F
100
AcDbEntity
  8
0
100
AcDbLine
 10
-88.00031042949627
 20
-70.70690361969297
 30
0.0
 11
-24.00031042949681
 21
-70.70690361969358
 31
0.0
  0
LINE
  5
47
330
1F
100
AcDbEntity
  8
0
100
AcDbLine
 10
-24.00031042949681
 20
-70.70690361969358
 30
0.0
 11
-24.00031042949609
 21
-38.70690361969308
 31
0.0
  0
LINE
  5
48
330
1F
100
AcDbEntity
  8
0
100
AcDbLine
 10
-88.00031042949617
 20
-38.70690361969281
 30
0.0
 11
-88.00031042949627
 21
-70.70690361969297
 31
0.0
  0
LINE
  5
49
330
1F
100
AcDbEntity
  8
0
100
AcDbLine
 10
-70.99338610958654
 20
-22.63465430517354
 30
0.0
 11
-110.9933861095862
 21
-22.63465430517355
 31
0.0
  0
LINE
  5
4A
330
1F
100
AcDbEntity
  8
0
100
AcDbLine
 10
-110.9933861095862
 20
-22.63465430517355
 30
0.0
 11
-110.9933861095862
 21
37.36534569482649
 31
0.0
  0
LINE
  5
4B
330
1F
100
AcDbEntity
  8
0
100
AcDbLine
 10
-70.99338610958618
 20
37.36534569482668
 30
0.0
 11
-70.99338610958654
 21
-22.63465430517354
 31
0.0
  0
LINE
  5
4C
330
1F
100
AcDbEntity
  8
0
100
AcDbLine
 10
-110.9933861095862
 20
37.36534569482649
 30
0.0
 11
-70.99338610958618
 21
37.36534569482668
 31
0.0
  0
LINE
  5
4D
330
1F
100
AcDbEntity
  8
0
100
AcDbLine
 10
-28.99338610958612
 20
37.22827874124491
 30
0.0
 11
-28.99338610958648
 21
-22.7717212587553
 31
0.0
  0
LINE
  5
4E
330
1F
100
AcDbEntity
  8
0
100
AcDbLine
 10
-68.99338610958621
 20
-22.77172125875531
 30
0.0
 11
-68.99338610958618
 21
37.22827874124474
 31
0.0
  0
LINE
  5
4F
330
1F
100
AcDbEntity
  8
0
100
AcDbLine
 10
-28.99338610958648
 20
-22.7717212587553
 30
0.0
 11
-68.99338610958621
 21
-22.77172125875531
 31
0.0
  0
LINE
  5
50
330
1F
100
AcDbEntity
  8
0
100
AcDbLine
 10
-68.99338610958618
 20
37.22827874124474
 30
0.0
 11
-28.99338610958612
 21
37.22827874124491
 31
0.0
  0
LINE
  5
51
330
1F
100
AcDbEntity
  8
0
100
AcDbLine
 10
-86.54591157843633
 20
85.30384065478307
 30
0.0
 11
-86.02934071750377
 21
85.22802551564287
 31
0.0
  0
LINE
  5
52
330
1F
100
AcDbEntity
  8
0
100
AcDbLine
 10
-24.26763876293565
 20
86.2278057059342
 30
0.0
 11
-24.06783791792642
 21
86.71016761572916
 31
0.0
  0
LINE
  5
53
330
1F
100
AcDbEntity
  8
0
100
AcDbLine
 10
-87.29958478392328
 20
85.72780570593419
 30
0.0
 11
-87.02525831220288
 21
85.51077083265668
 31
0.0
  0
LINE
  5
54
330
1F
100
AcDbEntity
  8
0
100
AcDbLine
 10
-85.51074917990405
 20
85.28849209167798
 30
0.0
 11
-85.02547812191155
 21
85.48111968565739
 31
0.0
  0
LINE
  5
55
330
1F
100
AcDbEntity
  8
0
100
AcDbLine
 10
-23.99968957050455
 20
88.7278057059342
 30
0.0
 11
-0.9996895705044986
 21
88.7278057059342
 31
0.0
  0
LINE
  5
56
330
1F
100
AcDbEntity
  8
0
100
AcDbLine
 10
-85.02547812191155
 20
85.48111968565739
 30
0.0
 11
-84.69392634027751
 21
85.72780570593419
 31
0.0
  0
LINE
  5
57
330
1F
100
AcDbEntity
  8
0
100
AcDbLine
 10
-87.43471423105517
 20
85.83471409960981
 30
0.0
 11
-87.29958478392328
 21
85.72780570593419
 31
0.0
  0
LINE
  5
58
330
1F
100
AcDbEntity
  8
0
100
AcDbLine
 10
-84.28265469722697
 20
86.20223696423581
 30
0.0
 11
-84.07572451935337
 21
86.68158369800236
 31
0.0
  0
LINE
  5
59
330
1F
100
AcDbEntity
  8
0
100
AcDbLine
 10
-23.99968957050455
 20
88.7278057059342
 30
0.0
 11
-23.99968957050455
 21
87.2278057059342
 31
0.0
  0
LINE
  5
5A
330
1F
100
AcDbEntity
  8
0
100
AcDbLine
 10
-24.06783791792642
 20
86.71016761572916
 30
0.0
 11
-23.99968957050455
 21
87.2278057059342
 31
0.0
  0
LINE
  5
5B
330
1F
100
AcDbEntity
  8
0
100
AcDbLine
 10
-86.02934071750377
 20
85.22802551564287
 30
0.0
 11
-85.51074917990405
 21
85.28849209167798
 31
0.0
  0
LINE
  5
5C
330
1F
100
AcDbEntity
  8
0
100
AcDbLine
 10
-87.02525831220288
 20
85.51077083265668
 30
0.0
 11
-86.54591157843633
 21
85.30384065478307
 31
0.0
  0
LINE
  5
5D
330
1F
100
AcDbEntity
  8
0
100
AcDbLine
 10
-84.60659796418012
 20
85.79278104538352
 30
0.0
 11
-84.28265469722697
 21
86.20223696423581
 31
0.0
  0
LINE
  5
5E
330
1F
100
AcDbEntity
  8
0
100
AcDbLine
 10
-27.3021040707166
 20
85.72780570593419
 30
0.0
 11
-26.99968957050454
 21
85.49575489836532
 31
0.0
  0
LINE
  5
5F
330
1F
100
AcDbEntity
  8
0
100
AcDbLine
 10
-27.41390313287762
 20
85.81359214356111
 30
0.0
 11
-27.3021040707166
 21
85.72780570593419
 31
0.0
  0
LINE
  5
60
330
1F
100
AcDbEntity
  8
0
100
AcDbLine
 10
-87.74637559078131
 20
86.25359425734125
 30
0.0
 11
-87.43471423105517
 21
85.83471409960981
 31
0.0
  0
LINE
  5
61
330
1F
100
AcDbEntity
  8
0
100
AcDbLine
 10
-87.9390031847607
 20
86.73886531533375
 30
0.0
 11
-87.74637559078131
 21
86.25359425734125
 31
0.0
  0
LINE
  5
62
330
1F
100
AcDbEntity
  8
0
100
AcDbLine
 10
-27.73174037807341
 20
86.2278057059342
 30
0.0
 11
-27.41390313287762
 21
85.81359214356111
 31
0.0
  0
LINE
  5
63
330
1F
100
AcDbEntity
  8
0
100
AcDbLine
 10
-27.93154122308266
 20
86.71016761572916
 30
0.0
 11
-27.73174037807341
 21
86.2278057059342
 31
0.0
  0
LINE
  5
64
330
1F
100
AcDbEntity
  8
0
100
AcDbLine
 10
-27.99968957050454
 20
87.2278057059342
 30
0.0
 11
-27.93154122308266
 21
86.71016761572916
 31
0.0
  0
LINE
  5
65
330
1F
100
AcDbEntity
  8
0
100
AcDbLine
 10
-24.99968957050454
 20
85.49575489836532
 30
0.0
 11
-24.69727507029248
 21
85.72780570593419
 31
0.0
  0
LINE
  5
66
330
1F
100
AcDbEntity
  8
0
100
AcDbLine
 10
-27.99968957050454
 20
87.2278057059342
 30
0.0
 11
-27.99968957050454
 21
88.7278057059342
 31
0.0
  0
LINE
  5
67
330
1F
100
AcDbEntity
  8
0
100
AcDbLine
 10
-83.99968957050449
 20
88.7278057059342
 30
0.0
 11
-27.99968957050454
 21
88.7278057059342
 31
0.0
  0
LINE
  5
68
330
1F
100
AcDbEntity
  8
0
100
AcDbLine
 10
-83.99968957050449
 20
88.7278057059342
 30
0.0
 11
-83.99990938021317
 21
87.19815455893492
 31
0.0
  0
LINE
  5
69
330
1F
100
AcDbEntity
  8
0
100
AcDbLine
 10
-84.07572451935337
 20
86.68158369800236
 30
0.0
 11
-83.99990938021317
 21
87.19815455893492
 31
0.0
  0
LINE
  5
6A
330
1F
100
AcDbEntity
  8
0
100
AcDbLine
 10
-84.69392634027751
 20
85.72780570593419
 30
0.0
 11
-84.60659796418012
 21
85.79278104538352
 31
0.0
  0
LINE
  5
6B
330
1F
100
AcDbEntity
  8
0
100
AcDbLine
 10
-87.99946976079582
 20
87.25745685293346
 30
0.0
 11
-87.9390031847607
 21
86.73886531533375
 31
0.0
  0
LINE
  5
6C
330
1F
100
AcDbEntity
  8
0
100
AcDbLine
 10
-87.99946976079582
 20
87.25745685293346
 30
0.0
 11
-87.9996895705045
 21
88.7278057059342
 31
0.0
  0
LINE
  5
6D
330
1F
100
AcDbEntity
  8
0
100
AcDbLine
 10
-110.9996895705045
 20
88.7278057059342
 30
0.0
 11
-87.9996895705045
 21
88.7278057059342
 31
0.0
  0
LINE
  5
6E
330
1F
100
AcDbEntity
  8
0
100
AcDbLine
 10
-110.9996895705045
 20
42.72780570593419
 30
0.0
 11
-110.9996895705045
 21
88.7278057059342
 31
0.0
  0
LINE
  5
6F
330
1F
100
AcDbEntity
  8
0
100
AcDbLine
 10
-0.9996895705044986
 20
42.72780570593419
 30
0.0
 11
-110.9996895705045
 21
42.72780570593419
 31
0.0
  0
LINE
  5
70
330
1F
100
AcDbEntity
  8
0
100
AcDbLine
 10
-0.9996895705044986
 20
88.7278057059342
 30
0.0
 11
-0.9996895705044986
 21
42.72780570593419
 31
0.0
  0
LINE
  5
71
330
1F
100
AcDbEntity
  8
0
100
AcDbLine
 10
-24.58547600813144
 20
85.81359214356111
 30
0.0
 11
-24.26763876293565
 21
86.2278057059342
 31
0.0
  0
LINE
  5
72
330
1F
100
AcDbEntity
  8
0
100
AcDbLine
 10
-24.69727507029248
 20
85.72780570593419
 30
0.0
 11
-24.58547600813144
 21
85.81359214356111
 31
0.0
  0
LINE
  5
73
330
1F
100
AcDbEntity
  8
0
100
AcDbLine
 10
-25.4820514802995
 20
85.29595405335606
 30
0.0
 11
-24.99968957050454
 21
85.49575489836532
 31
0.0
  0
LINE
  5
74
330
1F
100
AcDbEntity
  8
0
100
AcDbLine
 10
-25.99968957050454
 20
85.2278057059342
 30
0.0
 11
-25.4820514802995
 21
85.29595405335606
 31
0.0
  0
LINE
  5
75
330
1F
100
AcDbEntity
  8
0
100
AcDbLine
 10
-26.51732766070959
 20
85.29595405335606
 30
0.0
 11
-25.99968957050454
 21
85.2278057059342
 31
0.0
  0
LINE
  5
76
330
1F
100
AcDbEntity
  8
0
100
AcDbLine
 10
-26.99968957050454
 20
85.49575489836532
 30
0.0
 11
-26.51732766070959
 21
85.29595405335606
 31
0.0
  0
LINE
  5
77
330
1F
100
AcDbEntity
  8
0
100
AcDbLine
 10
24.69789592928342
 20
-45.7278057059342
 30
0.0
 11
24.5860968671224
 21
-45.64201926830732
 31
0.0
  0
LINE
  5
78
330
1F
100
AcDbEntity
  8
0
100
AcDbLine
 10
87.93216208207353
 20
-43.71016761572917
 30
0.0
 11
88.00031042949546
 21
-44.2278057059342
 31
0.0
  0
LINE
  5
79
330
1F
100
AcDbEntity
  8
0
100
AcDbLine
 10
25.48267233929045
 20
-42.29595405335606
 30
0.0
 11
26.0003104294955
 21
-42.22780570593419
 31
0.0
  0
LINE
  5
7A
330
1F
100
AcDbEntity
  8
0
100
AcDbLine
 10
87.30272492970745
 20
-45.7278057059342
 30
0.0
 11
87.00031042949541
 21
-45.95985651350305
 31
0.0
  0
LINE
  5
7B
330
1F
100
AcDbEntity
  8
0
100
AcDbLine
 10
24.26825962192661
 20
-43.2278057059342
 30
0.0
 11
24.5860968671224
 21
-42.8135921435611
 31
0.0
  0
LINE
  5
7C
330
1F
100
AcDbEntity
  8
0
100
AcDbLine
 10
24.26825962192661
 20
-45.22780570593421
 30
0.0
 11
24.06845877691735
 21
-44.74544379613925
 31
0.0
  0
LINE
  5
7D
330
1F
100
AcDbEntity
  8
0
100
AcDbLine
 10
1.000310429495475
 20
-88.7278057059342
 30
0.0
 11
111.0003104294964
 21
-88.7278057059342
 31
0.0
  0
LINE
  5
7E
330
1F
100
AcDbEntity
  8
0
100
AcDbLine
 10
84.26825962192663
 20
-45.22780570593419
 30
0.0
 11
84.06845877691745
 21
-44.74544379613923
 31
0.0
  0
LINE
  5
7F
330
1F
100
AcDbEntity
  8
0
100
AcDbLine
 10
27.73236123706439
 20
-43.2278057059342
 30
0.0
 11
27.93216208207364
 21
-43.71016761572915
 31
0.0
  0
LINE
  5
80
330
1F
100
AcDbEntity
  8
0
100
AcDbLine
 10
88.00031042949546
 20
-44.2278057059342
 30
0.0
 11
87.93216208207353
 21
-44.74544379613923
 31
0.0
  0
LINE
  5
81
330
1F
100
AcDbEntity
  8
0
100
AcDbLine
 10
87.00031042949541
 20
-42.49575489836536
 30
0.0
 11
87.30272492970745
 21
-42.72780570593421
 31
0.0
  0
LINE
  5
82
330
1F
100
AcDbEntity
  8
0
100
AcDbLine
 10
24.69789592928342
 20
-42.72780570593421
 30
0.0
 11
25.00031042949548
 21
-42.49575489836533
 31
0.0
  0
LINE
  5
83
330
1F
100
AcDbEntity
  8
0
100
AcDbLine
 10
84.6978959292835
 20
-45.7278057059342
 30
0.0
 11
84.58609686712241
 21
-45.64201926830728
 31
0.0
  0
LINE
  5
84
330
1F
100
AcDbEntity
  8
0
100
AcDbLine
 10
27.4145239918686
 20
-42.8135921435611
 30
0.0
 11
27.73236123706439
 21
-43.2278057059342
 31
0.0
  0
LINE
  5
85
330
1F
100
AcDbEntity
  8
0
100
AcDbLine
 10
85.00031042949554
 20
-42.49575489836536
 30
0.0
 11
85.48267233929043
 21
-42.29595405335611
 31
0.0
  0
LINE
  5
86
330
1F
100
AcDbEntity
  8
0
100
AcDbLine
 10
84.06845877691745
 20
-44.74544379613923
 30
0.0
 11
84.00031042949553
 21
-44.2278057059342
 31
0.0
  0
LINE
  5
87
330
1F
100
AcDbEntity
  8
0
100
AcDbLine
 10
27.30272492970755
 20
-45.7278057059342
 30
0.0
 11
27.0003104294955
 21
-45.95985651350309
 31
0.0
  0
LINE
  5
88
330
1F
100
AcDbEntity
  8
0
100
AcDbLine
 10
26.0003104294955
 20
-42.22780570593419
 30
0.0
 11
26.51794851970054
 21
-42.29595405335606
 31
0.0
  0
LINE
  5
89
330
1F
100
AcDbEntity
  8
0
100
AcDbLine
 10
27.93216208207364
 20
-44.74544379613925
 30
0.0
 11
27.73236123706439
 21
-45.22780570593421
 31
0.0
  0
LINE
  5
8A
330
1F
100
AcDbEntity
  8
0
100
AcDbLine
 10
26.51794851970054
 20
-46.15965735851235
 30
0.0
 11
26.0003104294955
 21
-46.22780570593421
 31
0.0
  0
LINE
  5
8B
330
1F
100
AcDbEntity
  8
0
100
AcDbLine
 10
25.00031042949548
 20
-42.49575489836533
 30
0.0
 11
25.48267233929045
 21
-42.29595405335606
 31
0.0
  0
LINE
  5
8C
330
1F
100
AcDbEntity
  8
0
100
AcDbLine
 10
26.0003104294955
 20
-46.22780570593421
 30
0.0
 11
25.48267233929045
 21
-46.15965735851235
 31
0.0
  0
LINE
  5
8D
330
1F
100
AcDbEntity
  8
0
100
AcDbLine
 10
24.00031042949548
 20
-44.2278057059342
 30
0.0
 11
24.06845877691735
 21
-43.71016761572915
 31
0.0
  0
LINE
  5
8E
330
1F
100
AcDbEntity
  8
0
100
AcDbLine
 10
24.06845877691735
 20
-43.71016761572915
 30
0.0
 11
24.26825962192661
 21
-43.2278057059342
 31
0.0
  0
LINE
  5
8F
330
1F
100
AcDbEntity
  8
0
100
AcDbLine
 10
86.0003104294955
 20
-42.22780570593424
 30
0.0
 11
86.51794851970054
 21
-42.29595405335611
 31
0.0
  0
LINE
  5
90
330
1F
100
AcDbEntity
  8
0
100
AcDbLine
 10
87.7323612370643
 20
-45.22780570593419
 30
0.0
 11
87.41452399186855
 21
-45.64201926830728
 31
0.0
  0
LINE
  5
91
330
1F
100
AcDbEntity
  8
0
100
AcDbLine
 10
84.26825962192663
 20
-43.22780570593423
 30
0.0
 11
84.58609686712241
 21
-42.81359214356114
 31
0.0
  0
LINE
  5
92
330
1F
100
AcDbEntity
  8
0
100
AcDbLine
 10
24.06845877691735
 20
-44.74544379613925
 30
0.0
 11
24.00031042949548
 21
-44.2278057059342
 31
0.0
  0
LINE
  5
93
330
1F
100
AcDbEntity
  8
0
100
AcDbLine
 10
85.48267233929043
 20
-42.29595405335611
 30
0.0
 11
86.0003104294955
 21
-42.22780570593424
 31
0.0
  0
LINE
  5
94
330
1F
100
AcDbEntity
  8
0
100
AcDbLine
 10
84.6978959292835
 20
-42.72780570593421
 30
0.0
 11
85.00031042949554
 21
-42.49575489836536
 31
0.0
  0
LINE
  5
95
330
1F
100
AcDbEntity
  8
0
100
AcDbLine
 10
27.73236123706439
 20
-45.22780570593421
 30
0.0
 11
27.4145239918686
 21
-45.64201926830732
 31
0.0
  0
LINE
  5
96
330
1F
100
AcDbEntity
  8
0
100
AcDbLine
 10
84.58609686712241
 20
-42.81359214356114
 30
0.0
 11
84.6978959292835
 21
-42.72780570593421
 31
0.0
  0
LINE
  5
97
330
1F
100
AcDbEntity
  8
0
100
AcDbLine
 10
86.51794851970054
 20
-46.15965735851231
 30
0.0
 11
86.0003104294955
 21
-46.22780570593417
 31
0.0
  0
LINE
  5
98
330
1F
100
AcDbEntity
  8
0
100
AcDbLine
 10
28.00031042949552
 20
-44.2278057059342
 30
0.0
 11
27.93216208207364
 21
-44.74544379613925
 31
0.0
  0
LINE
  5
99
330
1F
100
AcDbEntity
  8
0
100
AcDbLine
 10
27.4145239918686
 20
-45.64201926830732
 30
0.0
 11
27.30272492970755
 21
-45.7278057059342
 31
0.0
  0
LINE
  5
9A
330
1F
100
AcDbEntity
  8
0
100
AcDbLine
 10
25.48267233929045
 20
-46.15965735851235
 30
0.0
 11
25.0003104294955
 21
-45.95985651350309
 31
0.0
  0
LINE
  5
9B
330
1F
100
AcDbEntity
  8
0
100
AcDbLine
 10
85.48267233929043
 20
-46.15965735851231
 30
0.0
 11
85.00031042949554
 21
-45.95985651350305
 31
0.0
  0
LINE
  5
9C
330
1F
100
AcDbEntity
  8
0
100
AcDbLine
 10
111.0003104294964
 20
-88.7278057059342
 30
0.0
 11
111.0003104294964
 21
11.27219429406579
 31
0.0
  0
LINE
  5
9D
330
1F
100
AcDbEntity
  8
0
100
AcDbLine
 10
24.5860968671224
 20
-42.8135921435611
 30
0.0
 11
24.69789592928342
 21
-42.72780570593421
 31
0.0
  0
LINE
  5
9E
330
1F
100
AcDbEntity
  8
0
100
AcDbLine
 10
111.0003104294964
 20
11.27219429406579
 30
0.0
 11
1.000310429495475
 21
11.27219429406579
 31
0.0
  0
LINE
  5
9F
330
1F
100
AcDbEntity
  8
0
100
AcDbLine
 10
1.000310429495475
 20
11.27219429406579
 30
0.0
 11
1.000310429495475
 21
-88.7278057059342
 31
0.0
  0
LINE
  5
A0
330
1F
100
AcDbEntity
  8
0
100
AcDbLine
 10
87.30272492970745
 20
-42.72780570593421
 30
0.0
 11
87.41452399186855
 21
-42.81359214356114
 31
0.0
  0
LINE
  5
A1
330
1F
100
AcDbEntity
  8
0
100
AcDbLine
 10
86.51794851970054
 20
-42.29595405335611
 30
0.0
 11
87.00031042949541
 21
-42.49575489836536
 31
0.0
  0
LINE
  5
A2
330
1F
100
AcDbEntity
  8
0
100
AcDbLine
 10
84.06845877691745
 20
-43.71016761572918
 30
0.0
 11
84.26825962192663
 21
-43.22780570593423
 31
0.0
  0
LINE
  5
A3
330
1F
100
AcDbEntity
  8
0
100
AcDbLine
 10
84.00031042949553
 20
-44.2278057059342
 30
0.0
 11
84.06845877691745
 21
-43.71016761572918
 31
0.0
  0
LINE
  5
A4
330
1F
100
AcDbEntity
  8
0
100
AcDbLine
 10
84.58609686712241
 20
-45.64201926830728
 30
0.0
 11
84.26825962192663
 21
-45.22780570593419
 31
0.0
  0
LINE
  5
A5
330
1F
100
AcDbEntity
  8
0
100
AcDbLine
 10
85.00031042949554
 20
-45.95985651350305
 30
0.0
 11
84.6978959292835
 21
-45.7278057059342
 31
0.0
  0
LINE
  5
A6
330
1F
100
AcDbEntity
  8
0
100
AcDbLine
 10
86.0003104294955
 20
-46.22780570593417
 30
0.0
 11
85.48267233929043
 21
-46.15965735851231
 31
0.0
  0
LINE
  5
A7
330
1F
100
AcDbEntity
  8
0
100
AcDbLine
 10
87.00031042949541
 20
-45.95985651350305
 30
0.0
 11
86.51794851970054
 21
-46.15965735851231
 31
0.0
  0
LINE
  5
A8
330
1F
100
AcDbEntity
  8
0
100
AcDbLine
 10
87.41452399186855
 20
-45.64201926830728
 30
0.0
 11
87.30272492970745
 21
-45.7278057059342
 31
0.0
  0
LINE
  5
A9
330
1F
100
AcDbEntity
  8
0
100
AcDbLine
 10
87.93216208207353
 20
-44.74544379613923
 30
0.0
 11
87.7323612370643
 21
-45.22780570593419
 31
0.0
  0
LINE
  5
AA
330
1F
100
AcDbEntity
  8
0
100
AcDbLine
 10
87.7323612370643
 20
-43.22780570593423
 30
0.0
 11
87.93216208207353
 21
-43.71016761572917
 31
0.0
  0
LINE
  5
AB
330
1F
100
AcDbEntity
  8
0
100
AcDbLine
 10
87.41452399186855
 20
-42.81359214356114
 30
0.0
 11
87.7323612370643
 21
-43.22780570593423
 31
0.0
  0
LINE
  5
AC
330
1F
100
AcDbEntity
  8
0
100
AcDbLine
 10
27.30272492970755
 20
-42.72780570593421
 30
0.0
 11
27.4145239918686
 21
-42.8135921435611
 31
0.0
  0
LINE
  5
AD
330
1F
100
AcDbEntity
  8
0
100
AcDbLine
 10
27.0003104294955
 20
-42.49575489836531
 30
0.0
 11
27.30272492970755
 21
-42.72780570593421
 31
0.0
  0
LINE
  5
AE
330
1F
100
AcDbEntity
  8
0
100
AcDbLine
 10
26.51794851970054
 20
-42.29595405335606
 30
0.0
 11
27.0003104294955
 21
-42.49575489836531
 31
0.0
  0
LINE
  5
AF
330
1F
100
AcDbEntity
  8
0
100
AcDbLine
 10
24.5860968671224
 20
-45.64201926830732
 30
0.0
 11
24.26825962192661
 21
-45.22780570593421
 31
0.0
  0
LINE
  5
B0
330
1F
100
AcDbEntity
  8
0
100
AcDbLine
 10
25.0003104294955
 20
-45.95985651350309
 30
0.0
 11
24.69789592928342
 21
-45.7278057059342
 31
0.0
  0
LINE
  5
B1
330
1F
100
AcDbEntity
  8
0
100
AcDbLine
 10
27.0003104294955
 20
-45.95985651350309
 30
0.0
 11
26.51794851970054
 21
-46.15965735851235
 31
0.0
  0
LINE
  5
B2
330
1F
100
AcDbEntity
  8
0
100
AcDbLine
 10
27.93216208207364
 20
-43.71016761572915
 30
0.0
 11
28.00031042949552
 21
-44.2278057059342
 31
0.0
  0
LINE
  5
B3
330
1F
100
AcDbEntity
  8
0
100
AcDbLine
 10
84.00031042949553
 20
35.21233870732873
 30
0.0
 11
81.50031042949553
 21
35.21233870732861
 31
0.0
  0
LINE
  5
B4
330
1F
100
AcDbEntity
  8
0
100
AcDbLine
 10
84.00031042949561
 20
31.21233870732855
 30
0.0
 11
84.00031042949553
 21
28.71233870732853
 31
0.0
  0
LINE
  5
B5
330
1F
100
AcDbEntity
  8
0
100
AcDbLine
 10
111.0003104294964
 20
88.71233870732833
 30
0.0
 11
111.0003104294964
 21
28.71233870732853
 31
0.0
  0
LINE
  5
B6
330
1F
100
AcDbEntity
  8
0
100
AcDbLine
 10
21.50031042949548
 20
86.21233870732861
 30
0.0
 11
21.50031042949548
 21
82.21233870732839
 31
0.0
  0
LINE
  5
B7
330
1F
100
AcDbEntity
  8
0
100
AcDbLine
 10
90.5003104294956
 20
35.21233870732866
 30
0.0
 11
88.00031042949546
 21
35.21233870732868
 31
0.0
  0
LINE
  5
B8
330
1F
100
AcDbEntity
  8
0
100
AcDbLine
 10
28.00031042949549
 20
28.71233870732853
 30
0.0
 11
28.00031042949549
 21
31.21233870732855
 31
0.0
  0
LINE
  5
B9
330
1F
100
AcDbEntity
  8
0
100
AcDbLine
 10
101.0003104294962
 20
28.71233870732853
 30
0.0
 11
88.00031042949536
 21
28.71233870732853
 31
0.0
  0
LINE
  5
BA
330
1F
100
AcDbEntity
  8
0
100
AcDbLine
 10
84.00031042949553
 20
28.71233870732853
 30
0.0
 11
28.00031042949549
 21
28.71233870732853
 31
0.0
  0
LINE
  5
BB
330
1F
100
AcDbEntity
  8
0
100
AcDbLine
 10
21.50031042949548
 20
35.21233870732861
 30
0.0
 11
21.50031042949551
 21
31.21233870732857
 31
0.0
  0
LINE
  5
BC
330
1F
100
AcDbEntity
  8
0
100
AcDbLine
 10
81.50031042949544
 20
31.21233870732862
 30
0.0
 11
84.00031042949561
 21
31.21233870732855
 31
0.0
  0
LINE
  5
BD
330
1F
100
AcDbEntity
  8
0
100
AcDbLine
 10
28.00031042949552
 20
35.21233870732861
 30
0.0
 11
28.00031042949549
 21
36.71233870732863
 31
0.0
  0
LINE
  5
BE
330
1F
100
AcDbEntity
  8
0
100
AcDbLine
 10
21.50031042949551
 20
31.21233870732857
 30
0.0
 11
24.0003104294955
 21
31.21233870732855
 31
0.0
  0
LINE
  5
BF
330
1F
100
AcDbEntity
  8
0
100
AcDbLine
 10
30.50031042949549
 20
35.21233870732861
 30
0.0
 11
28.00031042949552
 21
35.21233870732861
 31
0.0
  0
LINE
  5
C0
330
1F
100
AcDbEntity
  8
0
100
AcDbLine
 10
24.0003104294955
 20
31.21233870732855
 30
0.0
 11
24.00031042949548
 21
28.71233870732853
 31
0.0
  0
LINE
  5
C1
330
1F
100
AcDbEntity
  8
0
100
AcDbLine
 10
24.0003104294955
 20
86.21233870732861
 30
0.0
 11
21.50031042949548
 21
86.21233870732861
 31
0.0
  0
LINE
  5
C2
330
1F
100
AcDbEntity
  8
0
100
AcDbLine
 10
88.00031042949546
 20
31.21233870732862
 30
0.0
 11
90.5003104294957
 21
31.21233870732857
 31
0.0
  0
LINE
  5
C3
330
1F
100
AcDbEntity
  8
0
100
AcDbLine
 10
101.0003104294962
 20
28.71233870732853
 30
0.0
 11
101.0003104294962
 21
37.21233870732866
 31
0.0
  0
LINE
  5
C4
330
1F
100
AcDbEntity
  8
0
100
AcDbLine
 10
51.0003104294955
 20
58.71233870732855
 30
0.0
 11
51.17068129805014
 21
57.41824348181594
 31
0.0
  0
LINE
  5
C5
330
1F
100
AcDbEntity
  8
0
100
AcDbLine
 10
51.17068129805014
 20
57.41824348181594
 30
0.0
 11
51.67018341057329
 21
56.21233870732853
 31
0.0
  0
LINE
  5
C6
330
1F
100
AcDbEntity
  8
0
100
AcDbLine
 10
81.50031042949563
 20
86.21233870732861
 30
0.0
 11
81.50031042949563
 21
82.21233870732839
 31
0.0
  0
LINE
  5
C7
330
1F
100
AcDbEntity
  8
0
100
AcDbLine
 10
81.50031042949563
 20
82.21233870732839
 30
0.0
 11
84.00031042949561
 21
82.21233870732839
 31
0.0
  0
LINE
  5
C8
330
1F
100
AcDbEntity
  8
0
100
AcDbLine
 10
84.00031042949561
 20
82.21233870732839
 30
0.0
 11
84.00031042949561
 21
80.71233870732848
 31
0.0
  0
LINE
  5
C9
330
1F
100
AcDbEntity
  8
0
100
AcDbLine
 10
84.00031042949561
 20
80.71233870732848
 30
0.0
 11
88.00031042949554
 21
80.71233870732848
 31
0.0
  0
LINE
  5
CA
330
1F
100
AcDbEntity
  8
0
100
AcDbLine
 10
88.00031042949554
 20
80.71233870732848
 30
0.0
 11
88.00031042949554
 21
82.21233870732839
 31
0.0
  0
LINE
  5
CB
330
1F
100
AcDbEntity
  8
0
100
AcDbLine
 10
28.00031042949549
 20
80.71233870732848
 30
0.0
 11
28.00031042949549
 21
82.21233870732839
 31
0.0
  0
LINE
  5
CC
330
1F
100
AcDbEntity
  8
0
100
AcDbLine
 10
101.2796533352438
 20
37.63868143723083
 30
0.0
 11
101.0003104294962
 21
37.21233870732866
 31
0.0
  0
LINE
  5
CD
330
1F
100
AcDbEntity
  8
0
100
AcDbLine
 10
21.50031042949548
 20
82.21233870732839
 30
0.0
 11
24.0003104294955
 21
82.21233870732839
 31
0.0
  0
LINE
  5
CE
330
1F
100
AcDbEntity
  8
0
100
AcDbLine
 10
51.67018341057329
 20
56.21233870732853
 30
0.0
 11
52.46477652356274
 21
55.17680480139573
 31
0.0
  0
LINE
  5
CF
330
1F
100
AcDbEntity
  8
0
100
AcDbLine
 10
52.46477652356274
 20
55.17680480139573
 30
0.0
 11
53.50031042949547
 21
54.3822116884064
 31
0.0
  0
LINE
  5
D0
330
1F
100
AcDbEntity
  8
0
100
AcDbLine
 10
30.50031042949549
 20
86.21233870732861
 30
0.0
 11
28.00031042949549
 21
86.21233870732861
 31
0.0
  0
LINE
  5
D1
330
1F
100
AcDbEntity
  8
0
100
AcDbLine
 10
28.00031042949549
 20
86.21233870732861
 30
0.0
 11
28.00031042949549
 21
88.71233870732833
 31
0.0
  0
LINE
  5
D2
330
1F
100
AcDbEntity
  8
0
100
AcDbLine
 10
84.00031042949561
 20
88.71233870732833
 30
0.0
 11
84.00031042949561
 21
86.21233870732861
 31
0.0
  0
LINE
  5
D3
330
1F
100
AcDbEntity
  8
0
100
AcDbLine
 10
88.00031042949554
 20
82.21233870732839
 30
0.0
 11
90.50031042949578
 21
82.21233870732839
 31
0.0
  0
LINE
  5
D4
330
1F
100
AcDbEntity
  8
0
100
AcDbLine
 10
90.50031042949578
 20
82.21233870732839
 30
0.0
 11
90.50031042949578
 21
86.21233870732861
 31
0.0
  0
LINE
  5
D5
330
1F
100
AcDbEntity
  8
0
100
AcDbLine
 10
90.50031042949578
 20
86.21233870732861
 30
0.0
 11
88.00031042949554
 21
86.21233870732861
 31
0.0
  0
LINE
  5
D6
330
1F
100
AcDbEntity
  8
0
100
AcDbLine
 10
88.00031042949554
 20
86.21233870732861
 30
0.0
 11
88.00031042949554
 21
88.71233870732833
 31
0.0
  0
LINE
  5
D7
330
1F
100
AcDbEntity
  8
0
100
AcDbLine
 10
105.3697581535554
 20
38.0080762945587
 30
0.0
 11
104.9580484032077
 21
38.30856866351429
 31
0.0
  0
LINE
  5
D8
330
1F
100
AcDbEntity
  8
0
100
AcDbLine
 10
104.9580484032077
 20
38.30856866351429
 30
0.0
 11
104.4991623127891
 21
38.53043379901838
 31
0.0
  0
LINE
  5
D9
330
1F
100
AcDbEntity
  8
0
100
AcDbLine
 10
104.4991623127891
 20
38.53043379901838
 30
0.0
 11
104.0079506762325
 21
38.66649154574075
 31
0.0
  0
LINE
  5
DA
330
1F
100
AcDbEntity
  8
0
100
AcDbLine
 10
88.00031042949554
 20
88.71233870732833
 30
0.0
 11
111.0003104294964
 21
88.71233870732833
 31
0.0
  0
LINE
  5
DB
330
1F
100
AcDbEntity
  8
0
100
AcDbLine
 10
111.0003104294964
 20
28.71233870732853
 30
0.0
 11
106.0003104294964
 21
28.71233870732853
 31
0.0
  0
LINE
  5
DC
330
1F
100
AcDbEntity
  8
0
100
AcDbLine
 10
106.0003104294964
 20
37.21233870732868
 30
0.0
 11
106.0003104294964
 21
28.71233870732853
 31
0.0
  0
LINE
  5
DD
330
1F
100
AcDbEntity
  8
0
100
AcDbLine
 10
106.0003104294964
 20
37.21233870732868
 30
0.0
 11
105.7209675237488
 21
37.63868143723083
 31
0.0
  0
LINE
  5
DE
330
1F
100
AcDbEntity
  8
0
100
AcDbLine
 10
105.7209675237488
 20
37.63868143723083
 30
0.0
 11
105.3697581535554
 21
38.0080762945587
 31
0.0
  0
LINE
  5
DF
330
1F
100
AcDbEntity
  8
0
100
AcDbLine
 10
90.5003104294957
 20
31.21233870732857
 30
0.0
 11
90.5003104294956
 21
35.21233870732866
 31
0.0
  0
LINE
  5
E0
330
1F
100
AcDbEntity
  8
0
100
AcDbLine
 10
88.00031042949536
 20
28.71233870732853
 30
0.0
 11
88.00031042949546
 21
31.21233870732862
 31
0.0
  0
LINE
  5
E1
330
1F
100
AcDbEntity
  8
0
100
AcDbLine
 10
24.00031042949548
 20
28.71233870732853
 30
0.0
 11
1.000310429495475
 21
28.71233870732853
 31
0.0
  0
LINE
  5
E2
330
1F
100
AcDbEntity
  8
0
100
AcDbLine
 10
24.00031042949546
 20
36.71233870732866
 30
0.0
 11
24.00031042949548
 21
35.21233870732861
 31
0.0
  0
LINE
  5
E3
330
1F
100
AcDbEntity
  8
0
100
AcDbLine
 10
24.0003104294955
 20
80.71233870732848
 30
0.0
 11
28.00031042949549
 21
80.71233870732848
 31
0.0
  0
LINE
  5
E4
330
1F
100
AcDbEntity
  8
0
100
AcDbLine
 10
28.00031042949549
 20
82.21233870732839
 30
0.0
 11
30.50031042949549
 21
82.21233870732839
 31
0.0
  0
LINE
  5
E5
330
1F
100
AcDbEntity
  8
0
100
AcDbLine
 10
84.00031042949561
 20
36.71233870732866
 30
0.0
 11
84.00031042949553
 21
35.21233870732873
 31
0.0
  0
LINE
  5
E6
330
1F
100
AcDbEntity
  8
0
100
AcDbLine
 10
24.0003104294955
 20
82.21233870732839
 30
0.0
 11
24.0003104294955
 21
80.71233870732848
 31
0.0
  0
LINE
  5
E7
330
1F
100
AcDbEntity
  8
0
100
AcDbLine
 10
28.00031042949549
 20
88.71233870732833
 30
0.0
 11
84.00031042949561
 21
88.71233870732833
 31
0.0
  0
LINE
  5
E8
330
1F
100
AcDbEntity
  8
0
100
AcDbLine
 10
56.00031042949549
 20
63.71233870732845
 30
0.0
 11
54.70621520398289
 21
63.54196783877381
 31
0.0
  0
LINE
  5
E9
330
1F
100
AcDbEntity
  8
0
100
AcDbLine
 10
54.70621520398289
 20
63.54196783877381
 30
0.0
 11
53.50031042949549
 21
63.04246572625078
 31
0.0
  0
LINE
  5
EA
330
1F
100
AcDbEntity
  8
0
100
AcDbLine
 10
53.50031042949549
 20
63.04246572625078
 30
0.0
 11
52.46477652356274
 21
62.24787261326131
 31
0.0
  0
LINE
  5
EB
330
1F
100
AcDbEntity
  8
0
100
AcDbLine
 10
52.46477652356274
 20
62.24787261326131
 30
0.0
 11
51.67018341057329
 21
61.21233870732845
 31
0.0
  0
LINE
  5
EC
330
1F
100
AcDbEntity
  8
0
100
AcDbLine
 10
51.67018341057329
 20
61.21233870732845
 30
0.0
 11
51.17068129805014
 21
60.00643393284099
 31
0.0
  0
LINE
  5
ED
330
1F
100
AcDbEntity
  8
0
100
AcDbLine
 10
51.17068129805014
 20
60.00643393284099
 30
0.0
 11
51.0003104294955
 21
58.71233870732855
 31
0.0
  0
LINE
  5
EE
330
1F
100
AcDbEntity
  8
0
100
AcDbLine
 10
30.50031042949549
 20
31.21233870732855
 30
0.0
 11
30.50031042949549
 21
35.21233870732861
 31
0.0
  0
LINE
  5
EF
330
1F
100
AcDbEntity
  8
0
100
AcDbLine
 10
102.042572455785
 20
38.30856866351429
 30
0.0
 11
101.6308627054373
 21
38.00807629455868
 31
0.0
  0
LINE
  5
F0
330
1F
100
AcDbEntity
  8
0
100
AcDbLine
 10
101.6308627054373
 20
38.00807629455868
 30
0.0
 11
101.2796533352438
 21
37.63868143723083
 31
0.0
  0
LINE
  5
F1
330
1F
100
AcDbEntity
  8
0
100
AcDbLine
 10
59.53584433542824
 20
62.24787261326129
 30
0.0
 11
58.50031042949551
 21
63.04246572625078
 31
0.0
  0
LINE
  5
F2
330
1F
100
AcDbEntity
  8
0
100
AcDbLine
 10
58.50031042949551
 20
63.04246572625078
 30
0.0
 11
57.29440565500809
 21
63.54196783877381
 31
0.0
  0
LINE
  5
F3
330
1F
100
AcDbEntity
  8
0
100
AcDbLine
 10
57.29440565500809
 20
63.54196783877381
 30
0.0
 11
56.00031042949549
 21
63.71233870732845
 31
0.0
  0
LINE
  5
F4
330
1F
100
AcDbEntity
  8
0
100
AcDbLine
 10
53.50031042949547
 20
54.3822116884064
 30
0.0
 11
54.70621520398289
 21
53.8827095758832
 31
0.0
  0
LINE
  5
F5
330
1F
100
AcDbEntity
  8
0
100
AcDbLine
 10
54.70621520398289
 20
53.8827095758832
 30
0.0
 11
56.00031042949549
 21
53.71233870732867
 31
0.0
  0
LINE
  5
F6
330
1F
100
AcDbEntity
  8
0
100
AcDbLine
 10
56.00031042949549
 20
53.71233870732867
 30
0.0
 11
57.29440565500809
 21
53.8827095758832
 31
0.0
  0
LINE
  5
F7
330
1F
100
AcDbEntity
  8
0
100
AcDbLine
 10
57.29440565500809
 20
53.8827095758832
 30
0.0
 11
58.50031042949549
 21
54.3822116884064
 31
0.0
  0
LINE
  5
F8
330
1F
100
AcDbEntity
  8
0
100
AcDbLine
 10
58.50031042949549
 20
54.3822116884064
 30
0.0
 11
59.53584433542824
 21
55.17680480139573
 31
0.0
  0
LINE
  5
F9
330
1F
100
AcDbEntity
  8
0
100
AcDbLine
 10
88.00031042949554
 20
36.71233870732858
 30
0.0
 11
84.00031042949561
 21
36.71233870732866
 31
0.0
  0
LINE
  5
FA
330
1F
100
AcDbEntity
  8
0
100
AcDbLine
 10
88.00031042949546
 20
35.21233870732868
 30
0.0
 11
88.00031042949554
 21
36.71233870732858
 31
0.0
  0
LINE
  5
FB
330
1F
100
AcDbEntity
  8
0
100
AcDbLine
 10
81.50031042949553
 20
35.21233870732861
 30
0.0
 11
81.50031042949544
 21
31.21233870732862
 31
0.0
  0
LINE
  5
FC
330
1F
100
AcDbEntity
  8
0
100
AcDbLine
 10
84.00031042949561
 20
86.21233870732861
 30
0.0
 11
81.50031042949563
 21
86.21233870732861
 31
0.0
  0
LINE
  5
FD
330
1F
100
AcDbEntity
  8
0
100
AcDbLine
 10
24.00031042949548
 20
35.21233870732861
 30
0.0
 11
21.50031042949548
 21
35.21233870732861
 31
0.0
  0
LINE
  5
FE
330
1F
100
AcDbEntity
  8
0
100
AcDbLine
 10
28.00031042949549
 20
31.21233870732855
 30
0.0
 11
30.50031042949549
 21
31.21233870732855
 31
0.0
  0
LINE
  5
FF
330
1F
100
AcDbEntity
  8
0
100
AcDbLine
 10
1.000310429495475
 20
28.71233870732853
 30
0.0
 11
1.000310429495475
 21
88.71233870732833
 31
0.0
  0
LINE
  5
100
330
1F
100
AcDbEntity
  8
0
100
AcDbLine
 10
28.00031042949549
 20
36.71233870732863
 30
0.0
 11
24.00031042949546
 21
36.71233870732866
 31
0.0
  0
LINE
  5
101
330
1F
100
AcDbEntity
  8
0
100
AcDbLine
 10
1.000310429495475
 20
88.71233870732833
 30
0.0
 11
24.0003104294955
 21
88.71233870732833
 31
0.0
  0
LINE
  5
102
330
1F
100
AcDbEntity
  8
0
100
AcDbLine
 10
24.0003104294955
 20
88.71233870732833
 30
0.0
 11
24.0003104294955
 21
86.21233870732861
 31
0.0
  0
LINE
  5
103
330
1F
100
AcDbEntity
  8
0
100
AcDbLine
 10
30.50031042949549
 20
82.21233870732839
 30
0.0
 11
30.50031042949549
 21
86.21233870732861
 31
0.0
  0
LINE
  5
104
330
1F
100
AcDbEntity
  8
0
100
AcDbLine
 10
104.0079506762325
 20
38.66649154574075
 30
0.0
 11
103.5003104294963
 21
38.71233870732865
 31
0.0
  0
LINE
  5
105
330
1F
100
AcDbEntity
  8
0
100
AcDbLine
 10
103.5003104294963
 20
38.71233870732865
 30
0.0
 11
102.9926701827602
 21
38.66649154574075
 31
0.0
  0
LINE
  5
106
330
1F
100
AcDbEntity
  8
0
100
AcDbLine
 10
102.9926701827602
 20
38.66649154574075
 30
0.0
 11
102.5014585462035
 21
38.53043379901838
 31
0.0
  0
LINE
  5
107
330
1F
100
AcDbEntity
  8
0
100
AcDbLine
 10
102.5014585462035
 20
38.53043379901838
 30
0.0
 11
102.042572455785
 21
38.30856866351429
 31
0.0
  0
LINE
  5
108
330
1F
100
AcDbEntity
  8
0
100
AcDbLine
 10
59.53584433542824
 20
55.17680480139573
 30
0.0
 11
60.33043744841768
 21
56.21233870732853
 31
0.0
  0
LINE
  5
109
330
1F
100
AcDbEntity
  8
0
100
AcDbLine
 10
60.33043744841768
 20
56.21233870732853
 30
0.0
 11
60.82993956094084
 21
57.41824348181594
 31
0.0
  0
LINE
  5
10A
330
1F
100
AcDbEntity
  8
0
100
AcDbLine
 10
60.82993956094084
 20
57.41824348181594
 30
0.0
 11
61.00031042949548
 21
58.71233870732855
 31
0.0
  0
LINE
  5
10B
330
1F
100
AcDbEntity
  8
0
100
AcDbLine
 10
61.00031042949548
 20
58.71233870732855
 30
0.0
 11
60.82993956094084
 21
60.00643393284099
 31
0.0
  0
LINE
  5
10C
330
1F
100
AcDbEntity
  8
0
100
AcDbLine
 10
60.82993956094084
 20
60.00643393284099
 30
0.0
 11
60.33043744841768
 21
61.21233870732845
 31
0.0
  0
LINE
  5
10D
330
1F
100
AcDbEntity
  8
0
100
AcDbLine
 10
60.33043744841768
 20
61.21233870732845
 30
0.0
 11
59.53584433542824
 21
62.24787261326129
 31
0.0
  0
ENDSEC
  0
SECTION
  2
OBJECTS
  0
DICTIONARY
  5
C
330
0
100
AcDbDictionary
  3
ACAD_GROUP
350
D
  3
ACAD_LAYOUT
350
1A
  3
ACAD_MATERIAL
350
3B
  3
ACAD_MLEADERSTYLE
350
130
  3
ACAD_MLINESTYLE
350
17
  3
ACAD_PLOTSETTINGS
350
19
  3
ACAD_VISUALSTYLE
350
2A
  3
ACDBHEADERROUNDTRIPXREC
350
10E
  3
ACDBVARIABLEDICTIONARY
350
12E
  0
DICTIONARY
  5
D
102
{ACAD_REACTORS
330
C
102
}
330
C
100
AcDbDictionary
  0
DICTIONARY
  5
1A
102
{ACAD_REACTORS
330
C
102
}
330
C
100
AcDbDictionary
  0
DICTIONARY
  5
3B
102
{ACAD_REACTORS
330
C
102
}
330
C
100
AcDbDictionary
  3
BYBLOCK
350
3D
  3
BYLAYER
350
3C
  3
GLOBAL
350
3E
  0
DICTIONARY
  5
130
102
{ACAD_REACTORS
330
C
102
}
330
C
100
AcDbDictionary
  0
DICTIONARY
  5
17
102
{ACAD_REACTORS
330
C
102
}
330
C
100
AcDbDictionary
  3
STANDARD
350
18
  0
DICTIONARY
  5
19
102
{ACAD_REACTORS
330
C
102
}
330
C
100
AcDbDictionary
  0
DICTIONARY
  5
2A
102
{ACAD_REACTORS
330
C
102
}
330
C
100
AcDbDictionary
  3
2DWIREFRAME
350
2F
  3
3D_HIDDEN
350
31
  3
3DWIREFRAME
350
30
  3
BASIC
350
32
  3
BRIGHTEN
350
36
  3
COLORCHANGE
350
3A
  3
CONCEPTUAL
350
34
  3
DIM
350
35
  3
FACEPATTERN
350
39
  3
FLAT
350
2B
  3
FLATWITHEDGES
350
2C
  3
GOURAUD
350
2D
  3
GOURAUDWITHEDGES
350
2E
  3
LINEPATTERN
350
38
  3
REALISTIC
350
33
  3
THICKEN
350
37
  0
DICTIONARY
  5
10E
102
{ACAD_REACTORS
330
C
102
}
330
C
100
AcDbDictionary
  3
CEPSNTYPE
350
117
  3
DIMSTYLEDATA
350
12D
  3
FINGERPRINTGUID
350
118
  3
HYPERLINKBASE
350
111
  3
INSUNITS
350
116
  3
LAYOUTDICT
350
113
  3
LWETCUNION
350
115
  3
PLOTSETDICT
350
114
  3
PSVPSCALE
350
11A
  3
PUCSBASE
350
11D
  3
PUCSORGBACK
350
123
  3
PUCSORGBOTTOM
350
11F
  3
PUCSORGFRONT
350
122
  3
PUCSORGLEFT
350
120
  3
PUCSORGRIGHT
350
121
  3
PUCSORGTOP
350
11E
  3
PUCSORTHOREF
350
11B
  3
PUCSORTHOVIEW
350
11C
  3
STYLESHEET
350
112
  3
TSTACKALIGN
350
10F
  3
TSTACKSIZE
350
110
  3
UCSBASE
350
126
  3
UCSORGBACK
350
12C
  3
UCSORGBOTTOM
350
128
  3
UCSORGFRONT
350
12B
  3
UCSORGLEFT
350
129
  3
UCSORGRIGHT
350
12A
  3
UCSORGTOP
350
127
  3
UCSORTHOREF
350
124
  3
UCSORTHOVIEW
350
125
  3
VERSIONGUID
350
119
  0
DICTIONARY
  5
12E
102
{ACAD_REACTORS
330
C
102
}
330
C
100
AcDbDictionary
  3
DIMASSOC
350
131
  3
HIDETEXT
350
132
  0
MATERIAL
  5
3D
102
{ACAD_REACTORS
330
3B
102
}
102
{ACAD_XDICTIONARY
360
135
102
}
330
3B
100
AcDbMaterial
  1
ByBlock
  0
MATERIAL
  5
3C
102
{ACAD_REACTORS
330
3B
102
}
102
{ACAD_XDICTIONARY
360
133
102
}
330
3B
100
AcDbMaterial
  1
ByLayer
  0
MATERIAL
  5
3E
102
{ACAD_REACTORS
330
3B
102
}
102
{ACAD_XDICTIONARY
360
137
102
}
330
3B
100
AcDbMaterial
  1
Global
  0
MLINESTYLE
  5
18
102
{ACAD_REACTORS
330
17
102
}
330
17
100
AcDbMlineStyle
  2
Standard
 70
     0
  3

 62
   256
 51
90.0
 52
90.0
 71
     2
 49
0.5
 62
   256
  6
BYLAYER
 49
-0.5
 62
   256
  6
BYLAYER
  0
ACAD_PROXY_OBJECT
  5
2F
102
{ACAD_REACTORS
330
2A
102
}
330
2A
100
AcDbProxyObject
 90
      499
 91
      501
 93
      436
310
42CC9915DA5C99599C985B595049028333333333333E3BF0000000000000FB0107901411070040501600405405064090741402480A0340
1001
ACAD
1000
AcDbSavedByObjectVersion
1070
     0
  0
ACAD_PROXY_OBJECT
  5
31
102
{ACAD_REACTORS
330
2A
102
}
330
2A
100
AcDbProxyObject
 90
      499
 91
      501
 93
      500
310
424CD108121A5919195B90640502408333333333333E3BF0000000000000FB01079024090700405020000000000001110200405405064090740C02480A0340
1001
ACAD
1000
AcDbSavedByObjectVersion
1070
     0
  0
ACAD_PROXY_OBJECT
  5
30
102
{ACAD_REACTORS
330
2A
102
}
330
2A
100
AcDbProxyObject
 90
      499
 91
      501
 93
      436
310
42CCD915DA5C99599C985B595059028333333333333E3BF0000000000000FB0107901411070040501600405405064090741402480A0340
1001
ACAD
1000
AcDbSavedByObjectVersion
1070
     0
  0
ACAD_PROXY_OBJECT
  5
32
102
{ACAD_REACTORS
330
2A
102
}
330
2A
100
AcDbProxyObject
 90
      499
 91
      501
 93
      388
310
4150985CDA58D07406404333333333333E3BF0000000000000FB0107A41107004050150841D405064090741402480A0350
1001
ACAD
1000
AcDbSavedByObjectVersion
1070
     0
  0
ACAD_PROXY_OBJECT
  5
36
102
{ACAD_REACTORS
330
2A
102
}
330
2A
100
AcDbProxyObject
 90
      499
 91
      501
 93
      428
310
42109C9A59DA1D195B90C409028333333333333E3BF0000000000000FB010790141107004050150841D405064090741402480A029950
1001
ACAD
1000
AcDbSavedByObjectVersion
1070
     0
  0
ACAD_PROXY_OBJECT
  5
3A
102
{ACAD_REACTORS
330
2A
102
}
330
2A
100
AcDbProxyObject
 90
      499
 91
      501
 93
      452
310
42D0DBDB1BDC90DA185B99D95104090240C333333333333E3BF0000000000000FB0108901411070040501508421405064090741402480A0350
1001
ACAD
1000
AcDbSavedByObjectVersion
1070
     0
  0
ACAD_PROXY_OBJECT
  5
34
102
{ACAD_REACTORS
330
2A
102
}
330
2A
100
AcDbProxyObject
 90
      499
 91
      501
 93
      500
310
4290DBDB98D95C1D1D585B10940D028333333333333E3BF0000000000000FB0107902409070040501000000000000111010841D405064090740C02480A0340
1001
ACAD
1000
AcDbSavedByObjectVersion
1070
     0
  0
ACAD_PROXY_OBJECT
  5
35
102
{ACAD_REACTORS
330
2A
102
}
330
2A
100
AcDbProxyObject
 90
      499
 91
      501
 93
      412
310
40D11A5B50B409028333333333333E3BF0000000000000FB010790141107004050150841D405064090741402480A02677FFFFFD0
1001
ACAD
1000
AcDbSavedByObjectVersion
1070
     0
  0
ACAD_PROXY_OBJECT
  5
39
102
{ACAD_REACTORS
330
2A
102
}
330
2A
100
AcDbProxyObject
 90
      499
 91
      501
 93
      444
310
42D19858D95C185D1D195C9B90F409028333333333333E3BF0000000000000FB010790141107004050150841D405064090741402480A0350
1001
ACAD
1000
AcDbSavedByObjectVersion
1070
     0
  0
ACAD_PROXY_OBJECT
  5
2B
102
{ACAD_REACTORS
330
2A
102
}
330
2A
100
AcDbProxyObject
 90
      499
 91
      501
 93
      388
310
41119B185D240901404333333333333E3BF0000000000000F9010740A41107004050150841D405064090741402480A1B50
1001
ACAD
1000
AcDbSavedByObjectVersion
1070
     0
  0
ACAD_PROXY_OBJECT
  5
2C
102
{ACAD_REACTORS
330
2A
102
}
330
2A
100
AcDbProxyObject
 90
      499
 91
      501
 93
      476
310
43519B185D15DA5D1A115919D95CD0140901404333333333333E3BF0000000000000F9010740901411070040501600405405064090741402480A1B50
1001
ACAD
1000
AcDbSavedByObjectVersion
1070
     0
  0
ACAD_PROXY_OBJECT
  5
2D
102
{ACAD_REACTORS
330
2A
102
}
330
2A
100
AcDbProxyObject
 90
      499
 91
      501
 93
      412
310
41D1DBDD5C985D5910240902404333333333333E3BF0000000000000F9010740A411070040501641D405064090741402480A1B50
1001
ACAD
1000
AcDbSavedByObjectVersion
1070
     0
  0
ACAD_PROXY_OBJECT
  5
2E
102
{ACAD_REACTORS
330
2A
102
}
330
2A
100
AcDbProxyObject
 90
      499
 91
      501
 93
      500
310
4411DBDD5C985D5915DA5D1A115919D95CD0340902404333333333333E3BF0000000000000F9010740901411070040501600405405064090741402480A1B50
1001
ACAD
1000
AcDbSavedByObjectVersion
1070
     0
  0
ACAD_PROXY_OBJECT
  5
38
102
{ACAD_REACTORS
330
2A
102
}
330
2A
100
AcDbProxyObject
 90
      499
 91
      501
 93
      444
310
42D31A5B995C185D1D195C9B90E409028333333333333E3BF0000000000000FB010790141107004050750841D405064090741402483A0350
1001
ACAD
1000
AcDbSavedByObjectVersion
1070
     0
  0
ACAD_PROXY_OBJECT
  5
33
102
{ACAD_REACTORS
330
2A
102
}
330
2A
100
AcDbProxyObject
 90
      499
 91
      501
 93
      420
310
425499585B1A5CDD1A58D08409028333333333333E3BF0000000000000FB01079019070040501508421405064090741402480A1B40
1001
ACAD
1000
AcDbSavedByObjectVersion
1070
     0
  0
ACAD_PROXY_OBJECT
  5
37
102
{ACAD_REACTORS
330
2A
102
}
330
2A
100
AcDbProxyObject
 90
      499
 91
      501
 93
      412
310
41D51A1A58DAD95B90D409028333333333333E3BF0000000000000FB010790141107004050150C41D405064090741402480A0350
1001
ACAD
1000
AcDbSavedByObjectVersion
1070
     0
  0
XRECORD
  5
117
102
{ACAD_REACTORS
330
10E
102
}
330
10E
100
AcDbXrecord
 90
        0
  0
XRECORD
  5
12D
102
{ACAD_REACTORS
330
10E
102
}
330
10E
100
AcDbXrecord
1000
DSTYLE
1002
{
1070
   340
340
11
1002
}
  0
XRECORD
  5
118
102
{ACAD_REACTORS
330
10E
102
}
330
10E
100
AcDbXrecord
  1
{5EEF8A3A-2670-4AEF-B42F-644E9CD107D8}
  0
XRECORD
  5
111
102
{ACAD_REACTORS
330
10E
102
}
330
10E
100
AcDbXrecord
  1

  0
XRECORD
  5
116
102
{ACAD_REACTORS
330
10E
102
}
330
10E
100
AcDbXrecord
 90
        1
  0
XRECORD
  5
113
102
{ACAD_REACTORS
330
10E
102
}
330
10E
100
AcDbXrecord
340
1A
  0
XRECORD
  5
115
102
{ACAD_REACTORS
330
10E
102
}
330
10E
100
AcDbXrecord
 90
    10781
  0
XRECORD
  5
114
102
{ACAD_REACTORS
330
10E
102
}
330
10E
100
AcDbXrecord
340
19
  0
XRECORD
  5
11A
102
{ACAD_REACTORS
330
10E
102
}
330
10E
100
AcDbXrecord
 40
0.0
  0
XRECORD
  5
11D
102
{ACAD_REACTORS
330
10E
102
}
330
10E
100
AcDbXrecord
340
0
  0
XRECORD
  5
123
102
{ACAD_REACTORS
330
10E
102
}
330
10E
100
AcDbXrecord
 10
0.0
 20
0.0
 30
0.0
  0
XRECORD
  5
11F
102
{ACAD_REACTORS
330
10E
102
}
330
10E
100
AcDbXrecord
 10
0.0
 20
0.0
 30
0.0
  0
XRECORD
  5
122
102
{ACAD_REACTORS
330
10E
102
}
330
10E
100
AcDbXrecord
 10
0.0
 20
0.0
 30
0.0
  0
XRECORD
  5
120
102
{ACAD_REACTORS
330
10E
102
}
330
10E
100
AcDbXrecord
 10
0.0
 20
0.0
 30
0.0
  0
XRECORD
  5
121
102
{ACAD_REACTORS
330
10E
102
}
330
10E
100
AcDbXrecord
 10
0.0
 20
0.0
 30
0.0
  0
XRECORD
  5
11E
102
{ACAD_REACTORS
330
10E
102
}
330
10E
100
AcDbXrecord
 10
0.0
 20
0.0
 30
0.0
  0
XRECORD
  5
11B
102
{ACAD_REACTORS
330
10E
102
}
330
10E
100
AcDbXrecord
340
0
  0
XRECORD
  5
11C
102
{ACAD_REACTORS
330
10E
102
}
330
10E
100
AcDbXrecord
 70
     0
  0
XRECORD
  5
112
102
{ACAD_REACTORS
330
10E
102
}
330
10E
100
AcDbXrecord
  1

  0
XRECORD
  5
10F
102
{ACAD_REACTORS
330
10E
102
}
330
10E
100
AcDbXrecord
 90
        1
  0
XRECORD
  5
110
102
{ACAD_REACTORS
330
10E
102
}
330
10E
100
AcDbXrecord
 90
       70
  0
XRECORD
  5
126
102
{ACAD_REACTORS
330
10E
102
}
330
10E
100
AcDbXrecord
340
0
  0
XRECORD
  5
12C
102
{ACAD_REACTORS
330
10E
102
}
330
10E
100
AcDbXrecord
 10
0.0
 20
0.0
 30
0.0
  0
XRECORD
  5
128
102
{ACAD_REACTORS
330
10E
102
}
330
10E
100
AcDbXrecord
 10
0.0
 20
0.0
 30
0.0
  0
XRECORD
  5
12B
102
{ACAD_REACTORS
330
10E
102
}
330
10E
100
AcDbXrecord
 10
0.0
 20
0.0
 30
0.0
  0
XRECORD
  5
129
102
{ACAD_REACTORS
330
10E
102
}
330
10E
100
AcDbXrecord
 10
0.0
 20
0.0
 30
0.0
  0
XRECORD
  5
12A
102
{ACAD_REACTORS
330
10E
102
}
330
10E
100
AcDbXrecord
 10
0.0
 20
0.0
 30
0.0
  0
XRECORD
  5
127
102
{ACAD_REACTORS
330
10E
102
}
330
10E
100
AcDbXrecord
 10
0.0
 20
0.0
 30
0.0
  0
XRECORD
  5
124
102
{ACAD_REACTORS
330
10E
102
}
330
10E
100
AcDbXrecord
340
0
  0
XRECORD
  5
125
102
{ACAD_REACTORS
330
10E
102
}
330
10E
100
AcDbXrecord
 70
     0
  0
XRECORD
  5
119
102
{ACAD_REACTORS
330
10E
102
}
330
10E
100
AcDbXrecord
  1
{FAEB1C32-E019-11D5-929B-00C0DF256EC4}
  0
DICTIONARYVAR
  5
131
102
{ACAD_REACTORS
330
12E
102
}
330
12E
100
DictionaryVariables
280
     0
  1
2
  0
DICTIONARYVAR
  5
132
102
{ACAD_REACTORS
330
12E
102
}
330
12E
100
DictionaryVariables
280
     0
  1
1
  0
DICTIONARY
  5
135
330
3D
100
AcDbDictionary
280
     1
  3
ACAD_XREC_ROUNDTRIP
360
136
  0
DICTIONARY
  5
133
330
3C
100
AcDbDictionary
280
     1
  3
ACAD_XREC_ROUNDTRIP
360
134
  0
DICTIONARY
  5
137
330
3E
100
AcDbDictionary
280
     1
  3
ACAD_XREC_ROUNDTRIP
360
138
  0
XRECORD
  5
136
102
{ACAD_REACTORS
330
135
102
}
330
135
100
AcDbXrecord
102
MATERIAL
148
0.0
149
0.0
149
0.0
 93
        0
 94
      127
282
     0
 72
     1
 77
     1
171
     1
175
     1
179
     1
273
     0
  0
XRECORD
  5
134
102
{ACAD_REACTORS
330
133
102
}
330
133
100
AcDbXrecord
102
MATERIAL
148
0.0
149
0.0
149
0.0
 93
        0
 94
      127
282
     0
 72
     1
 77
     1
171
     1
175
     1
179
     1
273
     0
  0
XRECORD
  5
138
102
{ACAD_REACTORS
330
137
102
}
330
137
100
AcDbXrecord
102
MATERIAL
148
0.0
149
0.0
149
0.0
 93
        0
 94
      127
282
     0
 72
     1
 77
     1
171
     1
175
     1
179
     1
273
     0
  0
ENDSEC
  0
EOF
