 0
SECTION
 2
ENTITIES
  0
LINE
 8
Layer0
10
49.6874079554101
20
28.5764952519363
30
5.07593966858618e-014
11
49.5
21
30.0000000000002
31
0.0
  0
LINE
 8
Layer0
10
49.5
20
30.0000000000002
30
0.0
11
49.6874079554101
21
31.4235047480639
31
-9.58788604066285e-014
  0
LINE
 8
Layer0
10
49.6874079554101
20
31.4235047480639
30
-9.58788604066285e-014
11
50.2368602791855
21
32.75
31
-1.40998324127395e-014
  0
LINE
 8
Layer0
10
50.2368602791855
20
32.75
30
-1.40998324127395e-014
11
51.1109127034739
21
33.8890872965261
31
-5.07593966858622e-014
  0
LINE
 8
Layer0
10
84.0264681318918
20
104.802774323715
30
3.41215944388296e-013
11
84.5088300416867
21
104.602973478706
31
3.41215944388296e-013
  0
LINE
 8
Layer0
10
84.5088300416867
20
104.602973478706
30
3.41215944388296e-013
11
85.0264681318918
21
104.534825131284
31
3.41215944388296e-013
  0
LINE
 8
Layer0
10
85.0264681318918
20
104.534825131284
30
3.41215944388296e-013
11
85.5441062220968
21
104.602973478706
31
3.41215944388296e-013
  0
LINE
 8
Layer0
10
85.5441062220968
20
104.602973478706
30
3.41215944388296e-013
11
86.0264681318918
21
104.802774323715
31
3.41215944388296e-013
  0
LINE
 8
Layer0
10
86.3288826321038
20
105.034825131284
30
3.41215944388296e-013
11
86.4406816942649
21
105.120611568911
31
3.41215944388296e-013
  0
LINE
 8
Layer0
10
86.4406816942649
20
105.120611568911
30
3.41215944388296e-013
11
86.7585189394607
21
105.534825131284
31
3.41215944388296e-013
  0
LINE
 8
Layer0
10
110.026468131892
20
108.034825131284
30
3.41215944388296e-013
11
110.026468131892
21
62.0348251312839
31
3.41215944388296e-013
  0
LINE
 8
Layer0
10
110.026468131892
20
62.0348251312839
30
3.41215944388296e-013
11
0.0264681318918641
21
62.0348251312839
31
3.41215944388296e-013
  0
LINE
 8
Layer0
10
0.0264681318918641
20
62.0348251312839
30
3.41215944388296e-013
11
0.0264681318918641
21
108.034825131284
31
3.41215944388296e-013
  0
LINE
 8
Layer0
10
0.0264681318918641
20
108.034825131284
30
3.41215944388296e-013
11
23.0264681318919
21
108.034825131284
31
3.41215944388296e-013
  0
LINE
 8
Layer0
10
23.0266879416006
20
106.564476278283
30
3.41215944388296e-013
11
23.0264681318919
21
108.034825131284
31
3.41215944388296e-013
  0
LINE
 8
Layer0
10
23.0266879416006
20
106.564476278283
30
3.41215944388296e-013
11
23.0871545176357
21
106.045884740683
31
3.41215944388296e-013
  0
LINE
 8
Layer0
10
26.3322313621189
20
105.034825131284
30
3.41215944388296e-013
11
26.4195597382163
21
105.099800470733
31
3.41215944388296e-013
  0
LINE
 8
Layer0
10
26.950433183043
20
105.988603123352
30
3.41215944388296e-013
11
27.0262483221832
21
106.505173984285
31
3.41215944388296e-013
  0
LINE
 8
Layer0
10
27.0264681318919
20
108.034825131284
30
3.41215944388296e-013
11
27.0262483221832
21
106.505173984285
31
3.41215944388296e-013
  0
LINE
 8
Layer0
10
27.0264681318919
20
108.034825131284
30
3.41215944388296e-013
11
83.0264681318918
21
108.034825131284
31
3.41215944388296e-013
  0
LINE
 8
Layer0
10
83.0264681318918
20
106.534825131284
30
3.41215944388296e-013
11
83.0264681318918
21
108.034825131284
31
3.41215944388296e-013
  0
LINE
 8
Layer0
10
86.0264681318918
20
104.802774323715
30
3.41215944388296e-013
11
86.3288826321038
21
105.034825131284
31
3.41215944388296e-013
  0
LINE
 8
Layer0
10
83.0264681318918
20
106.534825131284
30
3.41215944388296e-013
11
83.0946164793137
21
106.017187041079
31
3.41215944388296e-013
  0
LINE
 8
Layer0
10
83.0946164793137
20
106.017187041079
30
3.41215944388296e-013
11
83.2944173243229
21
105.534825131284
31
3.41215944388296e-013
  0
LINE
 8
Layer0
10
83.2944173243229
20
105.534825131284
30
3.41215944388296e-013
11
83.6122545695187
21
105.120611568911
31
3.41215944388296e-013
  0
LINE
 8
Layer0
10
23.0871545176357
20
106.045884740683
30
3.41215944388296e-013
11
23.2797821116151
21
105.560613682691
31
3.41215944388296e-013
  0
LINE
 8
Layer0
10
23.2797821116151
20
105.560613682691
30
3.41215944388296e-013
11
23.5914434713412
21
105.141733524959
31
3.41215944388296e-013
  0
LINE
 8
Layer0
10
83.6122545695187
20
105.120611568911
30
3.41215944388296e-013
11
83.7240536316797
21
105.034825131284
31
3.41215944388296e-013
  0
LINE
 8
Layer0
10
83.7240536316797
20
105.034825131284
30
3.41215944388296e-013
11
84.0264681318918
21
104.802774323715
31
3.41215944388296e-013
  0
LINE
 8
Layer0
10
26.4195597382163
20
105.099800470733
30
3.41215944388296e-013
11
26.7435030051694
21
105.509256389585
31
3.41215944388296e-013
  0
LINE
 8
Layer0
10
24.0008993901935
20
104.817790258006
30
3.41215944388296e-013
11
24.4802461239601
21
104.610860080133
31
3.41215944388296e-013
  0
LINE
 8
Layer0
10
24.9968169848926
20
104.535044940993
30
3.41215944388296e-013
11
25.5154085224923
21
104.595511517028
31
3.41215944388296e-013
  0
LINE
 8
Layer0
10
86.9583197844699
20
106.017187041079
30
3.41215944388296e-013
11
87.0264681318918
21
106.534825131284
31
3.41215944388296e-013
  0
LINE
 8
Layer0
10
87.0264681318918
20
108.034825131284
30
3.41215944388296e-013
11
87.0264681318918
21
106.534825131284
31
3.41215944388296e-013
  0
LINE
 8
Layer0
10
26.7435030051694
20
105.509256389585
30
3.41215944388296e-013
11
26.950433183043
21
105.988603123352
31
3.41215944388296e-013
  0
LINE
 8
Layer0
10
23.5914434713412
20
105.141733524959
30
3.41215944388296e-013
11
23.7265729184731
21
105.034825131284
31
3.41215944388296e-013
  0
LINE
 8
Layer0
10
26.0006795804848
20
104.788139111007
30
3.41215944388296e-013
11
26.3322313621189
21
105.034825131284
31
3.41215944388296e-013
  0
LINE
 8
Layer0
10
87.0264681318918
20
108.034825131284
30
3.41215944388296e-013
11
110.026468131892
21
108.034825131284
31
3.41215944388296e-013
  0
LINE
 8
Layer0
10
25.5154085224923
20
104.595511517028
30
3.41215944388296e-013
11
26.0006795804848
21
104.788139111007
31
3.41215944388296e-013
  0
LINE
 8
Layer0
10
23.7265729184731
20
105.034825131284
30
3.41215944388296e-013
11
24.0008993901935
21
104.817790258006
31
3.41215944388296e-013
  0
LINE
 8
Layer0
10
86.7585189394607
20
105.534825131284
30
3.41215944388296e-013
11
86.9583197844699
21
106.017187041079
31
3.41215944388296e-013
  0
LINE
 8
Layer0
10
24.4802461239601
20
104.610860080133
30
3.41215944388296e-013
11
24.9968169848926
21
104.535044940993
31
3.41215944388296e-013
  0
LINE
 8
Layer0
10
45.5264681318919
20
91.034825131284
30
3.41215944388296e-013
11
45.5264681318919
21
103.034825131284
31
3.41215944388296e-013
  0
LINE
 8
Layer0
10
45.5264681318919
20
103.034825131284
30
3.41215944388296e-013
11
64.5264681318918
21
103.034825131284
31
3.41215944388296e-013
  0
LINE
 8
Layer0
10
64.5264681318918
20
103.034825131284
30
3.41215944388296e-013
11
64.5264681318918
21
91.034825131284
31
3.41215944388296e-013
  0
LINE
 8
Layer0
10
64.5264681318918
20
91.034825131284
30
3.41215944388296e-013
11
45.5264681318919
21
91.034825131284
31
3.41215944388296e-013
  0
LINE
 8
Layer0
10
55.0
20
35.5000000000001
30
1.9739765377835e-014
11
56.4235047480638
21
35.3125920445899
31
-3.10196313080269e-014
  0
LINE
 8
Layer0
10
56.4235047480638
20
35.3125920445899
30
-3.10196313080269e-014
11
57.7499999999999
21
34.7631397208146
31
-5.63993296509579e-015
  0
LINE
 8
Layer0
10
82.9999999999999
20
57.5
30
-3.32756044940652e-013
11
82.9999999999999
21
60.0
31
-3.10196313080269e-014
  0
LINE
 8
Layer0
10
80.4999999999998
20
57.4999999999999
30
-3.72235575696322e-013
11
82.9999999999999
21
57.5
31
-3.32756044940652e-013
  0
LINE
 8
Layer0
10
80.5
20
53.5000000000001
30
2.73536748807146e-013
11
80.4999999999998
21
57.4999999999999
31
-3.72235575696322e-013
  0
LINE
 8
Layer0
10
82.9999999999999
20
53.5
30
3.01736413632625e-013
11
80.5
21
53.5000000000001
31
2.73536748807146e-013
  0
LINE
 8
Layer0
10
82.9999999999999
20
52.0000000000001
30
-5.35793631684101e-014
11
82.9999999999999
21
53.5
31
3.01736413632625e-013
  0
LINE
 8
Layer0
10
86.9999999999999
20
52.0000000000001
30
1.12798659301913e-014
11
82.9999999999999
21
52.0000000000001
31
-5.35793631684101e-014
  0
LINE
 8
Layer0
10
86.9999999999998
20
53.5
30
2.65076849359502e-013
11
86.9999999999999
21
52.0000000000001
31
1.12798659301913e-014
  0
LINE
 8
Layer0
10
89.4999999999998
20
53.5
30
2.65076849359502e-013
11
86.9999999999998
21
53.5
31
2.65076849359502e-013
  0
LINE
 8
Layer0
10
89.4999999999999
20
57.5
30
-3.32756044940652e-013
11
89.4999999999998
21
53.5
31
2.65076849359502e-013
  0
LINE
 8
Layer0
10
86.9999999999998
20
57.4999999999999
30
-3.72235575696322e-013
11
89.4999999999999
21
57.5
31
-3.32756044940652e-013
  0
LINE
 8
Layer0
10
86.9999999999997
20
60.0
30
1.40998324127392e-014
11
86.9999999999998
21
57.4999999999999
31
-3.72235575696322e-013
  0
LINE
 8
Layer0
10
110.0
20
60.0
30
-3.10196313080269e-014
11
105.0
21
60.0
31
-3.10196313080269e-014
  0
LINE
 8
Layer0
10
110.0
20
0.0
30
0.0
11
110.0
21
60.0
31
-3.10196313080269e-014
  0
LINE
 8
Layer0
10
86.9999999999999
20
0.0
30
0.0
11
110.0
21
0.0
31
0.0
  0
LINE
 8
Layer0
10
86.9999999999999
20
2.50000000000002
30
-4.22994972382185e-014
11
86.9999999999999
21
0.0
31
0.0
  0
LINE
 8
Layer0
10
86.9999999999999
20
6.50000000000001
30
-4.51194637207664e-014
11
89.4999999999999
21
6.50000000000001
31
-4.51194637207664e-014
  0
LINE
 8
Layer0
10
23.0
20
53.5000000000001
30
3.27116111975556e-013
11
20.5
21
53.5000000000001
31
2.84816614737337e-013
  0
LINE
 8
Layer0
10
27.0
20
57.5
30
-3.49675843835939e-013
11
29.5
21
57.5
31
-3.49675843835939e-013
  0
LINE
 8
Layer0
10
20.5
20
6.50000000000001
30
-4.51194637207664e-014
11
23.0
21
6.50000000000001
31
-4.51194637207664e-014
  0
LINE
 8
Layer0
10
89.4999999999999
20
2.50000000000002
30
-4.22994972382185e-014
11
86.9999999999999
21
2.50000000000002
31
-4.22994972382185e-014
  0
LINE
 8
Layer0
10
27.0
20
53.5000000000001
30
3.27116111975556e-013
11
27.0
21
52.0000000000001
31
2.81996648254758e-015
  0
LINE
 8
Layer0
10
89.4999999999999
20
6.50000000000001
30
-4.51194637207664e-014
11
89.4999999999999
21
2.50000000000002
31
-4.22994972382185e-014
  0
LINE
 8
Layer0
10
86.9999999999999
20
7.99999999999994
30
1.69197988952871e-014
11
86.9999999999999
21
6.50000000000001
31
-4.51194637207664e-014
  0
LINE
 8
Layer0
10
83.0
20
7.99999999999994
30
1.69197988952871e-014
11
86.9999999999999
21
7.99999999999994
31
1.69197988952871e-014
  0
LINE
 8
Layer0
10
83.0
20
6.50000000000001
30
-4.51194637207664e-014
11
83.0
21
7.99999999999994
31
1.69197988952871e-014
  0
LINE
 8
Layer0
10
80.5
20
6.50000000000001
30
-4.51194637207664e-014
11
83.0
21
6.50000000000001
31
-4.51194637207664e-014
  0
LINE
 8
Layer0
10
80.5
20
2.50000000000002
30
-4.22994972382185e-014
11
80.5
21
6.50000000000001
31
-4.51194637207664e-014
  0
LINE
 8
Layer0
10
83.0
20
2.50000000000002
30
-4.22994972382185e-014
11
80.5
21
2.50000000000002
31
-4.22994972382185e-014
  0
LINE
 8
Layer0
10
83.0
20
0.0
30
0.0
11
83.0
21
2.50000000000002
31
-4.22994972382185e-014
  0
LINE
 8
Layer0
10
27.0
20
0.0
30
0.0
11
83.0
21
0.0
31
0.0
  0
LINE
 8
Layer0
10
27.0
20
2.50000000000002
30
-4.22994972382185e-014
11
27.0
21
0.0
31
0.0
  0
LINE
 8
Layer0
10
29.5
20
2.50000000000002
30
-4.22994972382185e-014
11
27.0
21
2.50000000000002
31
-4.22994972382185e-014
  0
LINE
 8
Layer0
10
29.5
20
6.50000000000001
30
-4.51194637207664e-014
11
29.5
21
2.50000000000002
31
-4.22994972382185e-014
  0
LINE
 8
Layer0
10
27.0
20
6.50000000000001
30
-4.51194637207664e-014
11
29.5
21
6.50000000000001
31
-4.51194637207664e-014
  0
LINE
 8
Layer0
10
27.0
20
7.99999999999994
30
1.69197988952871e-014
11
27.0
21
6.50000000000001
31
-4.51194637207664e-014
  0
LINE
 8
Layer0
10
23.0
20
7.99999999999994
30
1.69197988952871e-014
11
27.0
21
7.99999999999994
31
1.69197988952871e-014
  0
LINE
 8
Layer0
10
23.0
20
6.50000000000001
30
-4.51194637207664e-014
11
23.0
21
7.99999999999994
31
1.69197988952871e-014
  0
LINE
 8
Layer0
10
20.5
20
2.50000000000002
30
-4.22994972382185e-014
11
20.5
21
6.50000000000001
31
-4.51194637207664e-014
  0
LINE
 8
Layer0
10
23.0
20
2.50000000000002
30
-4.22994972382185e-014
11
20.5
21
2.50000000000002
31
-4.22994972382185e-014
  0
LINE
 8
Layer0
10
23.0
20
0.0
30
0.0
11
23.0
21
2.50000000000002
31
-4.22994972382185e-014
  0
LINE
 8
Layer0
10
0.0
20
0.0
30
0.0
11
23.0
21
0.0
31
0.0
  0
LINE
 8
Layer0
10
0.0
20
60.0
30
-3.10196313080269e-014
11
0.0
21
0.0
31
0.0
  0
LINE
 8
Layer0
10
23.0
20
60.0
30
-3.10196313080269e-014
11
0.0
21
60.0
31
-3.10196313080269e-014
  0
LINE
 8
Layer0
10
23.0
20
57.5
30
-3.49675843835939e-013
11
23.0
21
60.0
31
-3.10196313080269e-014
  0
LINE
 8
Layer0
10
20.5
20
57.5
30
-3.32756044940652e-013
11
23.0
21
57.5
31
-3.49675843835939e-013
  0
LINE
 8
Layer0
10
79.6874079554101
20
31.4235047480639
30
-9.58788604066285e-014
11
80.2368602791856
21
32.75
31
-1.40998324127395e-014
  0
LINE
 8
Layer0
10
83.5764952519361
20
35.3125920445899
30
-3.10196313080269e-014
11
85.0
21
35.5000000000001
31
1.9739765377835e-014
  0
LINE
 8
Layer0
10
85.0
20
35.5000000000001
30
1.9739765377835e-014
11
86.4235047480638
21
35.3125920445899
31
-3.10196313080269e-014
  0
LINE
 8
Layer0
10
86.4235047480638
20
35.3125920445899
30
-3.10196313080269e-014
11
87.7499999999998
21
34.7631397208146
31
-5.63993296509579e-015
  0
LINE
 8
Layer0
10
87.7499999999998
20
34.7631397208146
30
-5.63993296509579e-015
11
88.8890872965258
21
33.8890872965261
31
-5.07593966858622e-014
  0
LINE
 8
Layer0
10
20.5
20
53.5000000000001
30
2.84816614737337e-013
11
20.5
21
57.5
31
-3.32756044940652e-013
  0
LINE
 8
Layer0
10
23.0
20
52.0000000000001
30
-5.35793631684101e-014
11
23.0
21
53.5000000000001
31
3.27116111975556e-013
  0
LINE
 8
Layer0
10
27.0
20
52.0000000000001
30
2.81996648254758e-015
11
23.0
21
52.0000000000001
31
-5.35793631684101e-014
  0
LINE
 8
Layer0
10
29.5
20
53.5000000000001
30
2.79176681772242e-013
11
27.0
21
53.5000000000001
31
3.27116111975556e-013
  0
LINE
 8
Layer0
10
29.5
20
57.5
30
-3.49675843835939e-013
11
29.5
21
53.5000000000001
31
2.79176681772242e-013
  0
LINE
 8
Layer0
10
27.0
20
60.0
30
-3.10196313080269e-014
11
27.0
21
57.5
31
-3.49675843835939e-013
  0
LINE
 8
Layer0
10
82.9999999999999
20
60.0
30
-3.10196313080269e-014
11
27.0
21
60.0
31
-3.10196313080269e-014
  0
LINE
 8
Layer0
10
99.9999999999998
20
60.0
30
-3.10196313080269e-014
11
99.9999999999998
21
51.5
31
-4.22994972382185e-014
  0
LINE
 8
Layer0
10
99.9999999999998
20
60.0
30
-3.10196313080269e-014
11
86.9999999999997
21
60.0
31
1.40998324127392e-014
  0
LINE
 8
Layer0
10
105.0
20
51.5
30
-4.22994972382185e-014
11
104.720657094252
21
51.0736572700981
31
5.63993296509547e-015
  0
LINE
 8
Layer0
10
104.720657094252
20
51.0736572700981
30
5.63993296509547e-015
11
104.369447724059
21
50.7042624127702
31
-1.69197988952874e-013
  0
LINE
 8
Layer0
10
104.369447724059
20
50.7042624127702
30
-1.69197988952874e-013
11
103.957737973711
21
50.4037700438145
31
-1.7483792191797e-013
  0
LINE
 8
Layer0
10
103.957737973711
20
50.4037700438145
30
-1.7483792191797e-013
11
103.498851883293
21
50.1819049083104
31
-1.69197988952874e-013
  0
LINE
 8
Layer0
10
103.498851883293
20
50.1819049083104
30
-1.69197988952874e-013
11
103.007640246736
21
50.045847161588
31
-2.19957385638736e-013
  0
LINE
 8
Layer0
10
103.007640246736
20
50.045847161588
30
-2.19957385638736e-013
11
102.5
21
50.0000000000001
31
-1.7483792191797e-013
  0
LINE
 8
Layer0
10
102.5
20
50.0000000000001
30
-1.7483792191797e-013
11
101.992359753264
21
50.045847161588
31
-2.19957385638736e-013
  0
LINE
 8
Layer0
10
101.992359753264
20
50.045847161588
30
-2.19957385638736e-013
11
101.501148116707
21
50.1819049083104
31
-1.69197988952874e-013
  0
LINE
 8
Layer0
10
101.501148116707
20
50.1819049083104
30
-1.69197988952874e-013
11
101.042262026288
21
50.4037700438145
31
-1.7483792191797e-013
  0
LINE
 8
Layer0
10
101.042262026288
20
50.4037700438145
30
-1.7483792191797e-013
11
100.630552275941
21
50.7042624127702
31
-1.69197988952874e-013
  0
LINE
 8
Layer0
10
100.630552275941
20
50.7042624127702
30
-1.69197988952874e-013
11
100.279342905747
21
51.0736572700981
31
5.63993296509547e-015
  0
LINE
 8
Layer0
10
100.279342905747
20
51.0736572700981
30
5.63993296509547e-015
11
99.9999999999998
21
51.5
31
-4.22994972382185e-014
  0
LINE
 8
Layer0
10
105.0
20
51.5
30
-4.22994972382185e-014
11
105.0
21
60.0
31
-3.10196313080269e-014
  0
LINE
 8
Layer0
10
80.2368602791856
20
32.75
30
-1.40998324127395e-014
11
81.110912703474
21
33.8890872965261
31
-5.07593966858622e-014
  0
LINE
 8
Layer0
10
81.110912703474
20
33.8890872965261
30
-5.07593966858622e-014
11
82.25
21
34.7631397208146
31
-5.63993296509579e-015
  0
LINE
 8
Layer0
10
82.25
20
34.7631397208146
30
-5.63993296509579e-015
11
83.5764952519361
21
35.3125920445899
31
-3.10196313080269e-014
  0
LINE
 8
Layer0
10
52.25
20
25.2368602791856
30
-6.20392626160537e-014
11
51.1109127034739
21
26.1109127034741
31
-6.48592290986016e-014
  0
LINE
 8
Layer0
10
51.1109127034739
20
26.1109127034741
30
-6.48592290986016e-014
11
50.2368602791855
21
27.2500000000001
31
1.12798659301916e-013
  0
LINE
 8
Layer0
10
50.2368602791855
20
27.2500000000001
30
1.12798659301916e-013
11
49.6874079554101
21
28.5764952519363
31
5.07593966858618e-014
  0
LINE
 8
Layer0
10
51.1109127034739
20
33.8890872965261
30
-5.07593966858622e-014
11
52.25
21
34.7631397208146
31
-5.63993296509579e-015
  0
LINE
 8
Layer0
10
52.25
20
34.7631397208146
30
-5.63993296509579e-015
11
53.5764952519361
21
35.3125920445899
31
-3.10196313080269e-014
  0
LINE
 8
Layer0
10
53.5764952519361
20
35.3125920445899
30
-3.10196313080269e-014
11
55.0
21
35.5000000000001
31
1.9739765377835e-014
  0
LINE
 8
Layer0
10
22.25
20
34.7631397208146
30
-5.63993296509579e-015
11
23.5764952519361
21
35.3125920445899
31
-3.10196313080269e-014
  0
LINE
 8
Layer0
10
23.5764952519361
20
35.3125920445899
30
-3.10196313080269e-014
11
25.0
21
35.5000000000001
31
1.9739765377835e-014
  0
LINE
 8
Layer0
10
25.0
20
35.5000000000001
30
1.9739765377835e-014
11
26.4235047480639
21
35.3125920445899
31
-3.10196313080269e-014
  0
LINE
 8
Layer0
10
57.7499999999999
20
34.7631397208146
30
-5.63993296509579e-015
11
58.889087296526
21
33.8890872965261
31
-5.07593966858622e-014
  0
LINE
 8
Layer0
10
58.889087296526
20
33.8890872965261
30
-5.07593966858622e-014
11
59.7631397208144
21
32.75
31
-1.40998324127395e-014
  0
LINE
 8
Layer0
10
59.7631397208144
20
32.75
30
-1.40998324127395e-014
11
60.3125920445898
21
31.4235047480639
31
-9.58788604066285e-014
  0
LINE
 8
Layer0
10
60.3125920445898
20
31.4235047480639
30
-9.58788604066285e-014
11
60.4999999999999
21
30.0000000000002
31
0.0
  0
LINE
 8
Layer0
10
60.4999999999999
20
30.0000000000002
30
0.0
11
60.3125920445898
21
28.5764952519363
31
5.07593966858618e-014
  0
LINE
 8
Layer0
10
60.3125920445898
20
28.5764952519363
30
5.07593966858618e-014
11
59.7631397208144
21
27.2500000000001
31
1.12798659301916e-013
  0
LINE
 8
Layer0
10
59.7631397208144
20
27.2500000000001
30
1.12798659301916e-013
11
58.889087296526
21
26.1109127034741
31
-8.74189609589848e-014
  0
LINE
 8
Layer0
10
58.889087296526
20
26.1109127034741
30
-8.74189609589848e-014
11
57.75
21
25.2368602791856
31
-6.20392626160537e-014
  0
LINE
 8
Layer0
10
57.75
20
25.2368602791856
30
-6.20392626160537e-014
11
56.4235047480638
21
24.6874079554101
31
2.53796983429308e-014
  0
LINE
 8
Layer0
10
56.4235047480638
20
24.6874079554101
30
2.53796983429308e-014
11
55.0
21
24.5000000000001
31
5.63993296509547e-015
  0
LINE
 8
Layer0
10
55.0
20
24.5000000000001
30
5.63993296509547e-015
11
53.5764952519361
21
24.6874079554101
31
-2.25597318603832e-014
  0
LINE
 8
Layer0
10
53.5764952519361
20
24.6874079554101
30
-2.25597318603832e-014
11
52.25
21
25.2368602791856
31
-6.20392626160537e-014
  0
LINE
 8
Layer0
10
79.6874079554101
20
28.5764952519363
30
5.07593966858618e-014
11
79.5
21
30.0000000000002
31
0.0
  0
LINE
 8
Layer0
10
79.5
20
30.0000000000002
30
0.0
11
79.6874079554101
21
31.4235047480639
31
-9.58788604066285e-014
  0
LINE
 8
Layer0
10
88.8890872965258
20
33.8890872965261
30
-5.07593966858622e-014
11
89.7631397208143
21
32.75
31
-1.40998324127395e-014
  0
LINE
 8
Layer0
10
89.7631397208143
20
32.75
30
-1.40998324127395e-014
11
90.3125920445897
21
31.4235047480639
31
-9.58788604066285e-014
  0
LINE
 8
Layer0
10
90.3125920445897
20
31.4235047480639
30
-9.58788604066285e-014
11
90.4999999999999
21
30.0000000000002
31
0.0
  0
LINE
 8
Layer0
10
90.4999999999999
20
30.0000000000002
30
0.0
11
90.3125920445897
21
28.5764952519363
31
5.07593966858618e-014
  0
LINE
 8
Layer0
10
90.3125920445897
20
28.5764952519363
30
5.07593966858618e-014
11
89.7631397208143
21
27.2500000000001
31
1.12798659301916e-013
  0
LINE
 8
Layer0
10
89.7631397208143
20
27.2500000000001
30
1.12798659301916e-013
11
88.8890872965258
21
26.1109127034741
31
-8.74189609589848e-014
  0
LINE
 8
Layer0
10
88.8890872965258
20
26.1109127034741
30
-8.74189609589848e-014
11
87.7499999999998
21
25.2368602791856
31
-6.20392626160537e-014
  0
LINE
 8
Layer0
10
87.7499999999998
20
25.2368602791856
30
-6.20392626160537e-014
11
86.4235047480638
21
24.6874079554101
31
2.53796983429308e-014
  0
LINE
 8
Layer0
10
86.4235047480638
20
24.6874079554101
30
2.53796983429308e-014
11
85.0
21
24.5000000000001
31
5.63993296509547e-015
  0
LINE
 8
Layer0
10
85.0
20
24.5000000000001
30
5.63993296509547e-015
11
83.5764952519361
21
24.6874079554101
31
-2.25597318603832e-014
  0
LINE
 8
Layer0
10
83.5764952519361
20
24.6874079554101
30
-2.25597318603832e-014
11
82.25
21
25.2368602791856
31
-6.20392626160537e-014
  0
LINE
 8
Layer0
10
82.25
20
25.2368602791856
30
-6.20392626160537e-014
11
81.110912703474
21
26.1109127034741
31
-6.48592290986016e-014
  0
LINE
 8
Layer0
10
81.110912703474
20
26.1109127034741
30
-6.48592290986016e-014
11
80.2368602791856
21
27.2500000000001
31
1.12798659301916e-013
  0
LINE
 8
Layer0
10
80.2368602791856
20
27.2500000000001
30
1.12798659301916e-013
11
79.6874079554101
21
28.5764952519363
31
5.07593966858618e-014
  0
LINE
 8
Layer0
10
19.6874079554101
20
28.5764952519363
30
5.07593966858618e-014
11
19.5
21
30.0000000000002
31
0.0
  0
LINE
 8
Layer0
10
19.5
20
30.0000000000002
30
0.0
11
19.6874079554101
21
31.4235047480639
31
-9.58788604066285e-014
  0
LINE
 8
Layer0
10
19.6874079554101
20
31.4235047480639
30
-9.58788604066285e-014
11
20.2368602791856
21
32.75
31
-1.40998324127395e-014
  0
LINE
 8
Layer0
10
20.2368602791856
20
32.75
30
-1.40998324127395e-014
11
21.110912703474
21
33.8890872965261
31
-5.07593966858622e-014
  0
LINE
 8
Layer0
10
21.110912703474
20
33.8890872965261
30
-5.07593966858622e-014
11
22.25
21
34.7631397208146
31
-5.63993296509579e-015
  0
LINE
 8
Layer0
10
26.4235047480639
20
35.3125920445899
30
-3.10196313080269e-014
11
27.75
21
34.7631397208146
31
-5.63993296509579e-015
  0
LINE
 8
Layer0
10
27.75
20
34.7631397208146
30
-5.63993296509579e-015
11
28.889087296526
21
33.8890872965261
31
-5.07593966858622e-014
  0
LINE
 8
Layer0
10
28.889087296526
20
33.8890872965261
30
-5.07593966858622e-014
11
29.7631397208144
21
32.75
31
-1.40998324127395e-014
  0
LINE
 8
Layer0
10
29.7631397208144
20
32.75
30
-1.40998324127395e-014
11
30.3125920445899
21
31.4235047480639
31
-9.58788604066285e-014
  0
LINE
 8
Layer0
10
30.3125920445899
20
31.4235047480639
30
-9.58788604066285e-014
11
30.5
21
30.0000000000002
31
0.0
  0
LINE
 8
Layer0
10
30.5
20
30.0000000000002
30
0.0
11
30.3125920445899
21
28.5764952519363
31
5.07593966858618e-014
  0
LINE
 8
Layer0
10
30.3125920445899
20
28.5764952519363
30
5.07593966858618e-014
11
29.7631397208144
21
27.2500000000001
31
1.12798659301916e-013
  0
LINE
 8
Layer0
10
29.7631397208144
20
27.2500000000001
30
1.12798659301916e-013
11
28.889087296526
21
26.1109127034741
31
-8.74189609589848e-014
  0
LINE
 8
Layer0
10
28.889087296526
20
26.1109127034741
30
-8.74189609589848e-014
11
27.75
21
25.2368602791856
31
-6.20392626160537e-014
  0
LINE
 8
Layer0
10
27.75
20
25.2368602791856
30
-6.20392626160537e-014
11
26.4235047480639
21
24.6874079554101
31
2.53796983429308e-014
  0
LINE
 8
Layer0
10
26.4235047480639
20
24.6874079554101
30
2.53796983429308e-014
11
25.0
21
24.5000000000001
31
5.63993296509547e-015
  0
LINE
 8
Layer0
10
25.0
20
24.5000000000001
30
5.63993296509547e-015
11
23.5764952519361
21
24.6874079554101
31
-2.25597318603832e-014
  0
LINE
 8
Layer0
10
23.5764952519361
20
24.6874079554101
30
-2.25597318603832e-014
11
22.25
21
25.2368602791856
31
-6.20392626160537e-014
  0
LINE
 8
Layer0
10
22.25
20
25.2368602791856
30
-6.20392626160537e-014
11
21.110912703474
21
26.1109127034741
31
-6.48592290986016e-014
  0
LINE
 8
Layer0
10
21.110912703474
20
26.1109127034741
30
-6.48592290986016e-014
11
20.2368602791856
21
27.2500000000001
31
1.12798659301916e-013
  0
LINE
 8
Layer0
10
20.2368602791856
20
27.2500000000001
30
1.12798659301916e-013
11
19.6874079554101
21
28.5764952519363
31
5.07593966858618e-014
 0
ENDSEC
 0
EOF
